<svg xmlns="http://www.w3.org/2000/svg" xmlns:xlink="http://www.w3.org/1999/xlink" viewBox="0 0 1007.99 8192"><defs><linearGradient id="Unbenannter_Verlauf_11" x1="259.7" y1="-1819.79" x2="259.7" y2="9883.21" gradientTransform="matrix(0.7, 0, 0, -0.7, 322.21, 6918.16)" gradientUnits="userSpaceOnUse"><stop offset="0" stop-color="#282828"/><stop offset="0.5" stop-color="#003"/><stop offset="1"/></linearGradient></defs><g id="Ebene_2" data-name="Ebene 2"><g id="Ebene_1-2" data-name="Ebene 1"><g id="hintergrund" style="opacity:0"><rect width="1007.99" height="8192" style="fill:url(#Unbenannter_Verlauf_11)"/></g><g id="zeitstrahl" style="opacity:0"><circle id="circle-white" cx="503.99" cy="487.89" r="6.3" style="fill:#fff"/><line id="line-white" x1="503.99" y1="487.89" x2="503.99" y2="769.29" style="fill:none;stroke:#fff;stroke-miterlimit:2.7999658584594727;stroke-width:1.3999829292297363px"/><g id="gif"><path d="M478.58,1107.57h1.95v-9.73l-2.87,1.71v-4.29l5.15-3,1.78,0v15.31h2V1111h-8v-3.38Z"/><path d="M491,1111l3.78-6.64a4.48,4.48,0,0,1-.64,0l-.59-.1a6,6,0,0,1-1.95-.72,6.25,6.25,0,0,1-1.59-1.3,5.65,5.65,0,0,1-1.06-1.74,5.52,5.52,0,0,1-.39-2.07,6,6,0,0,1,.51-2.48,6.32,6.32,0,0,1,1.39-2,6.15,6.15,0,0,1,2-1.31,6.69,6.69,0,0,1,2.52-.48,6.43,6.43,0,0,1,2.47.48,6.66,6.66,0,0,1,2.05,1.29,6,6,0,0,1,1.39,1.95,5.62,5.62,0,0,1,.51,2.42,5.52,5.52,0,0,1-.12,1.17,8.1,8.1,0,0,1-.34,1.09c-.14.36-.31.7-.48,1s-.37.69-.57,1l-4.61,8.34Zm4.08-10.12a3.29,3.29,0,0,0,1.31-.25,2.44,2.44,0,0,0,1-.76,4.33,4.33,0,0,0,.29-.69,2.62,2.62,0,0,0,.12-.82,2.53,2.53,0,0,0-.17-.87,2.67,2.67,0,0,0-.5-.84,2.53,2.53,0,0,0-.86-.63,3,3,0,0,0-1.24-.23,3,3,0,0,0-1,.17,2.88,2.88,0,0,0-.89.5,2.32,2.32,0,0,0-.89,1.87,2.25,2.25,0,0,0,.23,1,2.36,2.36,0,0,0,.61.79,2.86,2.86,0,0,0,.92.52A3.12,3.12,0,0,0,495,1100.84Z"/><path d="M509.22,1091.94a6.45,6.45,0,0,1,4.29,1.64,5.7,5.7,0,0,1,1.31,1.75,5,5,0,0,1,.48,2.11,4.39,4.39,0,0,1-.5,2,5.48,5.48,0,0,1-1.34,1.69,5.83,5.83,0,0,1,1.64,1.79,4.61,4.61,0,0,1,.6,2.32,5.46,5.46,0,0,1-.5,2.29,6.12,6.12,0,0,1-1.36,1.91,6.74,6.74,0,0,1-2.06,1.32,6.82,6.82,0,0,1-2.56.48,6.72,6.72,0,0,1-1.75-.23,6.91,6.91,0,0,1-1.55-.64,6,6,0,0,1-1.3-1,6.82,6.82,0,0,1-1-1.23,5.51,5.51,0,0,1-.63-1.4,5.11,5.11,0,0,1-.24-1.5,4.75,4.75,0,0,1,.62-2.38,5.73,5.73,0,0,1,1.66-1.81,5.3,5.3,0,0,1-1.34-1.65,4.16,4.16,0,0,1-.48-2,4.94,4.94,0,0,1,.48-2.15,5.49,5.49,0,0,1,1.29-1.77,6.22,6.22,0,0,1,1.91-1.19A6,6,0,0,1,509.22,1091.94Zm-2.91,13.28a2.32,2.32,0,0,0,.22,1,2.47,2.47,0,0,0,.62.79,3.48,3.48,0,0,0,.92.54,3.35,3.35,0,0,0,1.15.2,3.22,3.22,0,0,0,1.12-.2,3.27,3.27,0,0,0,.91-.54,2.58,2.58,0,0,0,.61-.79,2.19,2.19,0,0,0,.23-1,2,2,0,0,0-.23-.93,2.39,2.39,0,0,0-.61-.77,3,3,0,0,0-.91-.54,3.18,3.18,0,0,0-1.12-.19,3.27,3.27,0,0,0-1.15.19,3.23,3.23,0,0,0-.92.54,2.29,2.29,0,0,0-.62.77A2.12,2.12,0,0,0,506.31,1105.22Zm.46-7.58a1.76,1.76,0,0,0,.18.79,1.93,1.93,0,0,0,.52.66,2.49,2.49,0,0,0,.78.45,2.82,2.82,0,0,0,1.93,0,2.66,2.66,0,0,0,.79-.45,2.27,2.27,0,0,0,.53-.66,1.67,1.67,0,0,0,.19-.79,1.83,1.83,0,0,0-.19-.82,2.41,2.41,0,0,0-1.32-1.15,2.66,2.66,0,0,0-2.71.47,1.9,1.9,0,0,0-.52.68A1.81,1.81,0,0,0,506.77,1097.64Z"/><path d="M518.69,1107.57H520c.42-1,.84-2,1.29-3l1.32-3c.44-1,.87-1.94,1.3-2.87s.82-1.82,1.21-2.66h-5.21v2.11h-3.53v-6H530v2.78c-1,2-1.95,4-3,6.15s-2,4.23-2.92,6.35h1.22v3.38h-6.67Z"/></g><g id="css"><path d="M478.93,1896.46h1.95v-9.73l-2.87,1.71v-4.29l5.15-3,1.78,0v15.31h2v3.37h-8v-3.38Z"/><path d="M491.29,1899.85l3.78-6.64a2.71,2.71,0,0,1-.64,0l-.59-.1a6,6,0,0,1-1.95-.72,6.43,6.43,0,0,1-1.59-1.3,5.93,5.93,0,0,1-1.06-1.74,5.51,5.51,0,0,1-.39-2.06,6,6,0,0,1,.51-2.49,6.49,6.49,0,0,1,1.39-2,6.36,6.36,0,0,1,2.06-1.31,6.7,6.7,0,0,1,5,0,6.51,6.51,0,0,1,2,1.3,6.07,6.07,0,0,1,1.4,1.94,5.77,5.77,0,0,1,.51,2.42,5.52,5.52,0,0,1-.13,1.17,6.88,6.88,0,0,1-.34,1.09,11,11,0,0,1-.48,1c-.17.34-.37.69-.57,1l-4.61,8.34Zm4.09-10.12a3.24,3.24,0,0,0,1.3-.25,2.54,2.54,0,0,0,1-.76,3.56,3.56,0,0,0,.28-.69,2.62,2.62,0,0,0,.12-.82,2.32,2.32,0,0,0-.17-.87,2.67,2.67,0,0,0-.5-.84,2.43,2.43,0,0,0-.86-.63,3,3,0,0,0-1.24-.23,3,3,0,0,0-1.91.67,2.44,2.44,0,0,0-.65.8,2.31,2.31,0,0,0-.24,1.07,2.33,2.33,0,0,0,.85,1.84,2.81,2.81,0,0,0,.91.52A3.18,3.18,0,0,0,495.38,1889.73Z"/><path d="M505.45,1899.85l3.78-6.64a2.73,2.73,0,0,1-.64,0l-.59-.1a6,6,0,0,1-1.95-.72,6.43,6.43,0,0,1-1.59-1.3,5.93,5.93,0,0,1-1.06-1.74,5.51,5.51,0,0,1-.39-2.06,6,6,0,0,1,.51-2.49,6.49,6.49,0,0,1,1.39-2,6.36,6.36,0,0,1,2.06-1.31,6.7,6.7,0,0,1,5,0,6.4,6.4,0,0,1,2.05,1.3,6.07,6.07,0,0,1,1.4,1.94,5.77,5.77,0,0,1,.51,2.42,4.94,4.94,0,0,1-.13,1.17,6.85,6.85,0,0,1-.33,1.09,11.06,11.06,0,0,1-.49,1c-.17.34-.37.69-.56,1l-4.62,8.34Zm4.09-10.12a3.24,3.24,0,0,0,1.3-.25,2.54,2.54,0,0,0,1-.76,3.56,3.56,0,0,0,.28-.69,2.62,2.62,0,0,0,.12-.82,2.32,2.32,0,0,0-.17-.87,2.67,2.67,0,0,0-.5-.84,2.43,2.43,0,0,0-.86-.63,3,3,0,0,0-1.24-.23,2.9,2.9,0,0,0-1,.17,3.05,3.05,0,0,0-.9.5,2.29,2.29,0,0,0-.64.8,2.2,2.2,0,0,0-.25,1.07,2.38,2.38,0,0,0,.23,1,2.53,2.53,0,0,0,.62.79,2.81,2.81,0,0,0,.91.52A3.21,3.21,0,0,0,509.54,1889.73Z"/><path d="M527.09,1881.16l-3.8,6.65a4.65,4.65,0,0,1,.65,0c.21,0,.41,0,.62.09a6.14,6.14,0,0,1,4.59,3.76,5.52,5.52,0,0,1,.39,2.07,6,6,0,0,1-.51,2.48,6.35,6.35,0,0,1-1.4,2,6.63,6.63,0,0,1-2.06,1.31,6.56,6.56,0,0,1-2.51.48,6.35,6.35,0,0,1-2.46-.48,6.62,6.62,0,0,1-2-1.29,6.31,6.31,0,0,1-1.39-1.94,5.77,5.77,0,0,1-.51-2.42,5.52,5.52,0,0,1,.13-1.17,8.21,8.21,0,0,1,.33-1.1,9.78,9.78,0,0,1,.48-1c.18-.34.37-.69.57-1l4.61-8.34ZM523,1891.29a3.15,3.15,0,0,0-1.36.28,2.61,2.61,0,0,0-1,.79,3.61,3.61,0,0,0-.27.67,2.78,2.78,0,0,0-.1.78,2.52,2.52,0,0,0,.16.88,2.42,2.42,0,0,0,.52.83,2.58,2.58,0,0,0,.87.62,3,3,0,0,0,1.25.23,3,3,0,0,0,1-.17,3.08,3.08,0,0,0,.89-.49,2.65,2.65,0,0,0,.65-.79,2.24,2.24,0,0,0,.25-1.08,2.37,2.37,0,0,0-.23-1,2.57,2.57,0,0,0-.62-.8,3.26,3.26,0,0,0-.91-.52A3.34,3.34,0,0,0,523,1891.29Z"/></g><g id="js"><path d="M478.93,2685.35h1.95v-9.73l-2.87,1.71V2673l5.15-3,1.78,0v15.31h2v3.37h-8v-3.38Z"/><path d="M491.29,2688.74l3.78-6.64a2.71,2.71,0,0,1-.64,0l-.59-.1a6,6,0,0,1-1.95-.72,6.43,6.43,0,0,1-1.59-1.3,5.93,5.93,0,0,1-1.06-1.74,5.51,5.51,0,0,1-.39-2.06,6,6,0,0,1,.51-2.49,6.49,6.49,0,0,1,1.39-2,6.36,6.36,0,0,1,2.06-1.31,6.79,6.79,0,0,1,2.51-.48,6.66,6.66,0,0,1,4.52,1.78,6.07,6.07,0,0,1,1.4,1.94,5.77,5.77,0,0,1,.51,2.42,5.52,5.52,0,0,1-.13,1.17,6.88,6.88,0,0,1-.34,1.09,11,11,0,0,1-.48,1.05c-.17.34-.37.69-.57,1l-4.61,8.34Zm4.09-10.12a3.24,3.24,0,0,0,1.3-.25,2.54,2.54,0,0,0,1-.76,3.56,3.56,0,0,0,.28-.69,2.62,2.62,0,0,0,.12-.82,2.35,2.35,0,0,0-.17-.87,2.67,2.67,0,0,0-.5-.84,2.56,2.56,0,0,0-.86-.63,3,3,0,0,0-1.24-.23,3,3,0,0,0-1.91.67,2.54,2.54,0,0,0-.65.8,2.31,2.31,0,0,0-.24,1.07,2.38,2.38,0,0,0,.23,1,2.43,2.43,0,0,0,.62.8,3,3,0,0,0,.91.51A3.18,3.18,0,0,0,495.38,2678.62Z"/><path d="M505.45,2688.74l3.78-6.64a2.73,2.73,0,0,1-.64,0l-.59-.1a6,6,0,0,1-1.95-.72,6.43,6.43,0,0,1-1.59-1.3,5.93,5.93,0,0,1-1.06-1.74,5.51,5.51,0,0,1-.39-2.06,6,6,0,0,1,.51-2.49,6.49,6.49,0,0,1,1.39-2,6.36,6.36,0,0,1,2.06-1.31,6.79,6.79,0,0,1,2.51-.48,6.66,6.66,0,0,1,4.52,1.78,6.07,6.07,0,0,1,1.4,1.94,5.77,5.77,0,0,1,.51,2.42,4.94,4.94,0,0,1-.13,1.17,6.85,6.85,0,0,1-.33,1.09,11.06,11.06,0,0,1-.49,1.05c-.17.34-.37.69-.56,1l-4.62,8.34Zm4.09-10.12a3.24,3.24,0,0,0,1.3-.25,2.54,2.54,0,0,0,1-.76,3.56,3.56,0,0,0,.28-.69,2.62,2.62,0,0,0,.12-.82,2.35,2.35,0,0,0-.17-.87,2.67,2.67,0,0,0-.5-.84,2.56,2.56,0,0,0-.86-.63,3,3,0,0,0-1.24-.23,2.9,2.9,0,0,0-1,.17,3.05,3.05,0,0,0-.9.5,2.39,2.39,0,0,0-.64.8,2.2,2.2,0,0,0-.25,1.07,2.38,2.38,0,0,0,.23,1,2.57,2.57,0,0,0,.62.8,3,3,0,0,0,.91.51A3.21,3.21,0,0,0,509.54,2678.62Z"/><path d="M527.09,2670.05l-3.8,6.65a4.65,4.65,0,0,1,.65,0c.21,0,.41.05.62.09a6.26,6.26,0,0,1,2,.72,6.12,6.12,0,0,1,2.64,3,5.52,5.52,0,0,1,.39,2.07,6,6,0,0,1-.51,2.48,6.35,6.35,0,0,1-1.4,2,6.63,6.63,0,0,1-2.06,1.31,6.56,6.56,0,0,1-2.51.48,6.35,6.35,0,0,1-2.46-.48,6.62,6.62,0,0,1-2-1.29,6.31,6.31,0,0,1-1.39-1.94,5.77,5.77,0,0,1-.51-2.42,5.52,5.52,0,0,1,.13-1.17,8.67,8.67,0,0,1,.33-1.1,9.78,9.78,0,0,1,.48-1.05c.18-.34.37-.69.57-1l4.61-8.34ZM523,2680.18a3.15,3.15,0,0,0-1.36.28,2.61,2.61,0,0,0-1,.79,3.61,3.61,0,0,0-.27.67,2.78,2.78,0,0,0-.1.78,2.62,2.62,0,0,0,.16.89,2.48,2.48,0,0,0,.52.82,2.58,2.58,0,0,0,.87.62,3,3,0,0,0,1.25.24,3,3,0,0,0,1-.18,3.08,3.08,0,0,0,.89-.49,2.65,2.65,0,0,0,.65-.79,2.24,2.24,0,0,0,.25-1.08,2.37,2.37,0,0,0-.23-1,2.57,2.57,0,0,0-.62-.8,3.26,3.26,0,0,0-.91-.52A3.34,3.34,0,0,0,523,2680.18Z"/></g><g id="flash"><path d="M478.76,3474.24h1.95v-9.73l-2.87,1.71v-4.29l5.15-3,1.78,0v15.31h2v3.37h-8v-3.38Z"/><path d="M491.13,3477.63l3.78-6.64a2.71,2.71,0,0,1-.64,0l-.59-.1a6,6,0,0,1-1.95-.72,6.43,6.43,0,0,1-1.59-1.3,5.93,5.93,0,0,1-1.06-1.74,5.51,5.51,0,0,1-.39-2.06,6,6,0,0,1,.51-2.49,6.49,6.49,0,0,1,1.39-2,6.36,6.36,0,0,1,2.06-1.31,6.79,6.79,0,0,1,2.51-.48,6.66,6.66,0,0,1,4.52,1.78,5.89,5.89,0,0,1,1.39,1.94,5.63,5.63,0,0,1,.52,2.42,5.52,5.52,0,0,1-.13,1.17,6.88,6.88,0,0,1-.34,1.09,11,11,0,0,1-.48,1.05c-.17.34-.37.69-.57,1l-4.61,8.34Zm4.08-10.12a3.24,3.24,0,0,0,1.3-.25,2.54,2.54,0,0,0,1-.76,3.56,3.56,0,0,0,.28-.69,2.62,2.62,0,0,0,.12-.82,2.55,2.55,0,0,0-.16-.87,2.71,2.71,0,0,0-.51-.84,2.56,2.56,0,0,0-.86-.63,3.28,3.28,0,0,0-2.25-.06,3.05,3.05,0,0,0-.9.5,2.39,2.39,0,0,0-.64.8,2.31,2.31,0,0,0-.25,1.07,2.38,2.38,0,0,0,.23,1.05,2.57,2.57,0,0,0,.62.8,3,3,0,0,0,.92.51A3.16,3.16,0,0,0,495.21,3467.51Z"/><path d="M505.29,3477.63l3.78-6.64a2.71,2.71,0,0,1-.64,0l-.59-.1a6,6,0,0,1-1.95-.72,6.43,6.43,0,0,1-1.59-1.3,5.93,5.93,0,0,1-1.06-1.74,5.51,5.51,0,0,1-.39-2.06,6,6,0,0,1,.51-2.49,6.49,6.49,0,0,1,1.39-2,6.36,6.36,0,0,1,2.06-1.31,6.79,6.79,0,0,1,2.51-.48,6.66,6.66,0,0,1,4.52,1.78,6.07,6.07,0,0,1,1.4,1.94,5.77,5.77,0,0,1,.51,2.42,5.52,5.52,0,0,1-.13,1.17,6.88,6.88,0,0,1-.34,1.09,11,11,0,0,1-.48,1.05c-.17.34-.37.69-.57,1l-4.61,8.34Zm4.08-10.12a3.21,3.21,0,0,0,1.3-.25,2.54,2.54,0,0,0,1-.76,4.33,4.33,0,0,0,.29-.69,3,3,0,0,0,.11-.82,2.55,2.55,0,0,0-.16-.87,2.71,2.71,0,0,0-.51-.84,2.56,2.56,0,0,0-.86-.63,3.28,3.28,0,0,0-2.25-.06,3.05,3.05,0,0,0-.9.5,2.52,2.52,0,0,0-.64.8,2.31,2.31,0,0,0-.25,1.07,2.38,2.38,0,0,0,.23,1.05,2.57,2.57,0,0,0,.62.8,3,3,0,0,0,.92.51A3.16,3.16,0,0,0,509.37,3467.51Z"/><path d="M518.51,3474.24h1.3c.42-1,.85-1.95,1.3-2.95l1.32-3,1.3-2.87c.42-.93.82-1.82,1.21-2.66h-5.21v2.11H516.2v-6h13.64v2.78q-1.46,3-3,6.15t-2.92,6.36h1.22v3.37h-6.66v-3.36Z"/></g><g id="svg"><path d="M477.2,4263.3l6.45-6.85a7.32,7.32,0,0,0,1.29-1.62,3.27,3.27,0,0,0,.46-1.65,1.78,1.78,0,0,0-.15-.71,2,2,0,0,0-.43-.63,2,2,0,0,0-.68-.44,2.29,2.29,0,0,0-.9-.17,2.59,2.59,0,0,0-1.05.19,2.24,2.24,0,0,0-.75.52,2.37,2.37,0,0,0-.46.78,3.26,3.26,0,0,0-.18.94h-3.7a6.61,6.61,0,0,1,.48-2.59,5.54,5.54,0,0,1,3.3-3.11,7.31,7.31,0,0,1,4.74,0,5.82,5.82,0,0,1,1.95,1.08,5.19,5.19,0,0,1,1.33,1.76,5.55,5.55,0,0,1,.49,2.41,4.47,4.47,0,0,1-.45,2,7.63,7.63,0,0,1-1.21,1.77l-5.31,5.75h6.95v3.78H477.21v-3.21Z"/><path d="M498.39,4266.67a7,7,0,0,1-3.34-.73,6,6,0,0,1-2.25-2,8.86,8.86,0,0,1-1.27-3,16.9,16.9,0,0,1-.4-3.72,17.53,17.53,0,0,1,.38-3.71,8.84,8.84,0,0,1,1.25-3.06,6.22,6.22,0,0,1,2.25-2.07,7.13,7.13,0,0,1,3.41-.76,7,7,0,0,1,3.38.75,6.06,6.06,0,0,1,2.25,2,9,9,0,0,1,1.25,3,17.31,17.31,0,0,1,.38,3.68,16.38,16.38,0,0,1-.4,3.72,8.63,8.63,0,0,1-1.27,3,6.37,6.37,0,0,1-2.26,2.05A7,7,0,0,1,498.39,4266.67Zm0-3.77a3.21,3.21,0,0,0,1.75-.43,2.82,2.82,0,0,0,1-1.21,5.59,5.59,0,0,0,.44-1.83c.06-.7.1-1.47.1-2.3s0-1.57-.1-2.27a6,6,0,0,0-.43-1.83,2.88,2.88,0,0,0-1-1.23,3.06,3.06,0,0,0-1.73-.44,3.13,3.13,0,0,0-1.75.44,2.81,2.81,0,0,0-1,1.23,6,6,0,0,0-.45,1.83c-.07.7-.11,1.46-.11,2.27s0,1.6.11,2.3a6.14,6.14,0,0,0,.44,1.83,2.69,2.69,0,0,0,1,1.21A3.14,3.14,0,0,0,498.39,4262.9Z"/><path d="M514.35,4266.67a7,7,0,0,1-3.35-.73,6,6,0,0,1-2.25-2,8.65,8.65,0,0,1-1.26-3,16.32,16.32,0,0,1-.4-3.72,16.9,16.9,0,0,1,.38-3.71,9,9,0,0,1,1.24-3.06,6.25,6.25,0,0,1,2.26-2.07,8,8,0,0,1,6.79,0,6.1,6.1,0,0,1,2.24,2,8.61,8.61,0,0,1,1.25,3,17.31,17.31,0,0,1,.38,3.68,16.38,16.38,0,0,1-.4,3.72,8.81,8.81,0,0,1-1.26,3,6.37,6.37,0,0,1-2.26,2.05A7,7,0,0,1,514.35,4266.67Zm0-3.77a3.18,3.18,0,0,0,1.74-.43,2.82,2.82,0,0,0,1-1.21,5.59,5.59,0,0,0,.44-1.83c.07-.7.1-1.47.1-2.3s0-1.57-.1-2.27a6,6,0,0,0-.43-1.83,2.74,2.74,0,0,0-1-1.23,3,3,0,0,0-1.73-.44,3.15,3.15,0,0,0-1.75.44,2.81,2.81,0,0,0-1,1.23,6.29,6.29,0,0,0-.45,1.83c-.07.7-.1,1.46-.1,2.27s0,1.6.1,2.3a6.14,6.14,0,0,0,.44,1.83,2.82,2.82,0,0,0,1,1.21A3.13,3.13,0,0,0,514.35,4262.9Z"/><path d="M523.44,4263.13h1.95v-9.73l-2.87,1.71v-4.29l5.15-3,1.78,0v15.31h2v3.37h-8v-3.38Z"/></g><g id="canvas"><path d="M474.64,5052.2l6.44-6.86a7.39,7.39,0,0,0,1.3-1.62,3.26,3.26,0,0,0,.45-1.65,2,2,0,0,0-.14-.71,2,2,0,0,0-.43-.63,2,2,0,0,0-.68-.44,2.37,2.37,0,0,0-.9-.17,2.59,2.59,0,0,0-1.05.19,2.06,2.06,0,0,0-.75.52,2.37,2.37,0,0,0-.46.78,3.26,3.26,0,0,0-.18.94h-3.7A6.61,6.61,0,0,1,475,5040a5.48,5.48,0,0,1,1.32-1.92,5.66,5.66,0,0,1,2-1.19,7.1,7.1,0,0,1,2.42-.4,7.18,7.18,0,0,1,2.32.37,5.85,5.85,0,0,1,1.94,1.08,5.09,5.09,0,0,1,1.34,1.76,5.55,5.55,0,0,1,.49,2.41,4.61,4.61,0,0,1-.45,2,7.63,7.63,0,0,1-1.21,1.77l-5.31,5.75h6.95v3.78H474.64v-3.2Z"/><path d="M495.84,5055.56a7,7,0,0,1-3.35-.73,6.07,6.07,0,0,1-2.24-2,8.48,8.48,0,0,1-1.27-3,16.32,16.32,0,0,1-.4-3.72,17.53,17.53,0,0,1,.38-3.71,9,9,0,0,1,1.24-3.06,6.33,6.33,0,0,1,2.26-2.07,8,8,0,0,1,6.79,0,6.1,6.1,0,0,1,2.24,2,8.61,8.61,0,0,1,1.25,3,17.3,17.3,0,0,1,.39,3.68,17,17,0,0,1-.4,3.72,9,9,0,0,1-1.27,3,6.37,6.37,0,0,1-2.26,2.05A7,7,0,0,1,495.84,5055.56Zm0-3.77a3.15,3.15,0,0,0,1.74-.43,2.84,2.84,0,0,0,1-1.21,5.85,5.85,0,0,0,.44-1.83c.06-.7.09-1.47.09-2.3s0-1.57-.09-2.27a6,6,0,0,0-.44-1.83,2.79,2.79,0,0,0-1-1.23,3.66,3.66,0,0,0-3.48,0,2.83,2.83,0,0,0-1,1.23,6.3,6.3,0,0,0-.44,1.83,20.19,20.19,0,0,0-.11,2.27,20.5,20.5,0,0,0,.11,2.3,5.85,5.85,0,0,0,.44,1.83,2.73,2.73,0,0,0,1,1.21A3.15,3.15,0,0,0,495.84,5051.79Z"/><path d="M511.78,5055.56a7,7,0,0,1-3.34-.73,6,6,0,0,1-2.25-2,8.86,8.86,0,0,1-1.27-3,16.92,16.92,0,0,1-.39-3.72,17.55,17.55,0,0,1,.37-3.71,9.25,9.25,0,0,1,1.25-3.06,6.22,6.22,0,0,1,2.25-2.07,7.13,7.13,0,0,1,3.41-.76,7,7,0,0,1,3.38.75,6.06,6.06,0,0,1,2.25,2,9,9,0,0,1,1.25,3,17.31,17.31,0,0,1,.38,3.68,16.38,16.38,0,0,1-.4,3.72,8.81,8.81,0,0,1-1.26,3,6.4,6.4,0,0,1-2.27,2.05A7,7,0,0,1,511.78,5055.56Zm0-3.77a3.21,3.21,0,0,0,1.75-.43,2.82,2.82,0,0,0,1-1.21,5.59,5.59,0,0,0,.44-1.83c.07-.7.1-1.47.1-2.3s0-1.57-.1-2.27a6,6,0,0,0-.43-1.83,2.81,2.81,0,0,0-1-1.23,3.06,3.06,0,0,0-1.73-.44,3.13,3.13,0,0,0-1.75.44,2.81,2.81,0,0,0-1,1.23,6,6,0,0,0-.45,1.83c-.07.7-.1,1.46-.1,2.27s0,1.6.1,2.3a6.14,6.14,0,0,0,.44,1.83,2.75,2.75,0,0,0,1,1.21A3.14,3.14,0,0,0,511.78,5051.79Z"/><path d="M519.58,5047.15l6.63-10.41h4.11l-6.53,10.44h3.93v-3.61l3.85,0v3.66h2.6v3.12h-2.6V5052H534v3.37h-8V5052h1.77v-1.72h-8.15v-3.15Z"/></g><g id="circle-black"><circle cx="503.99" cy="1140.99" r="2.1"/><circle cx="503.99" cy="1845.18" r="6.3"/><circle cx="503.99" cy="1056.29" r="6.3"/><circle cx="503.99" cy="1929.88" r="2.1"/><circle cx="503.99" cy="2634.07" r="6.3"/><circle cx="503.99" cy="3422.96" r="6.3"/><circle cx="503.99" cy="2718.77" r="2.1"/><circle cx="503.99" cy="7367.41" r="6.3"/><circle cx="503.99" cy="5789.63" r="6.3"/><circle cx="503.99" cy="5085.44" r="2.1"/><circle cx="503.99" cy="6663.22" r="2.1"/><circle cx="503.99" cy="8156.3" r="6.3"/><circle cx="503.99" cy="7452.11" r="2.1"/><circle cx="503.99" cy="6578.52" r="6.3"/><circle cx="503.99" cy="5874.33" r="2.1"/><circle cx="503.99" cy="5000.74" r="6.3"/><circle cx="503.99" cy="4296.55" r="2.1"/><circle cx="503.99" cy="4211.85" r="6.3"/><circle cx="503.99" cy="3507.66" r="2.1"/></g><g id="video"><path d="M474.89,5841.09l6.45-6.86a7.32,7.32,0,0,0,1.29-1.62,3.27,3.27,0,0,0,.46-1.65,1.78,1.78,0,0,0-.15-.71,2,2,0,0,0-.43-.63,2,2,0,0,0-.68-.44,2.29,2.29,0,0,0-.9-.17,2.59,2.59,0,0,0-1.05.19,2.1,2.1,0,0,0-.75.52,2.37,2.37,0,0,0-.46.78,3.2,3.2,0,0,0-.18.94h-3.7a6.57,6.57,0,0,1,.48-2.59,5.54,5.54,0,0,1,3.3-3.11,7.31,7.31,0,0,1,4.74,0,5.82,5.82,0,0,1,1.95,1.08,5.19,5.19,0,0,1,1.33,1.76,5.55,5.55,0,0,1,.49,2.41,4.47,4.47,0,0,1-.45,2,7.63,7.63,0,0,1-1.21,1.77l-5.31,5.75h6.95v3.78H474.9v-3.2Z"/><path d="M496.09,5844.45a7,7,0,0,1-3.35-.73,6.07,6.07,0,0,1-2.24-2,8.86,8.86,0,0,1-1.27-3,16.9,16.9,0,0,1-.4-3.72,17.53,17.53,0,0,1,.38-3.71,8.84,8.84,0,0,1,1.25-3.06,6.22,6.22,0,0,1,2.25-2.07,7.1,7.1,0,0,1,3.41-.76,7,7,0,0,1,3.38.75,6.21,6.21,0,0,1,2.25,2,8.78,8.78,0,0,1,1.24,3,17.3,17.3,0,0,1,.39,3.68,17,17,0,0,1-.4,3.72,9,9,0,0,1-1.27,3,6.37,6.37,0,0,1-2.26,2.05A7,7,0,0,1,496.09,5844.45Zm0-3.77a3.15,3.15,0,0,0,1.74-.43,2.78,2.78,0,0,0,1-1.21,5.59,5.59,0,0,0,.44-1.83c.06-.7.1-1.47.1-2.3s0-1.57-.1-2.27a5.72,5.72,0,0,0-.44-1.83,2.79,2.79,0,0,0-1-1.23,3.66,3.66,0,0,0-3.48,0,2.81,2.81,0,0,0-1,1.23,6,6,0,0,0-.45,1.83c-.07.7-.11,1.46-.11,2.27s0,1.6.11,2.3a5.85,5.85,0,0,0,.44,1.83,2.69,2.69,0,0,0,1,1.21A3.12,3.12,0,0,0,496.09,5840.68Z"/><path d="M512,5844.45a7,7,0,0,1-3.35-.73,6,6,0,0,1-2.25-2,8.65,8.65,0,0,1-1.26-3,16.32,16.32,0,0,1-.4-3.72,16.9,16.9,0,0,1,.38-3.71,9,9,0,0,1,1.24-3.06,6.25,6.25,0,0,1,2.26-2.07,8,8,0,0,1,6.79,0,6.1,6.1,0,0,1,2.24,2,8.61,8.61,0,0,1,1.25,3,17.31,17.31,0,0,1,.38,3.68,16.38,16.38,0,0,1-.4,3.72,8.81,8.81,0,0,1-1.26,3,6.37,6.37,0,0,1-2.26,2.05A7,7,0,0,1,512,5844.45Zm0-3.77a3.18,3.18,0,0,0,1.74-.43,2.82,2.82,0,0,0,1-1.21,5.59,5.59,0,0,0,.44-1.83c.07-.7.1-1.47.1-2.3s0-1.57-.1-2.27a6,6,0,0,0-.43-1.83,2.74,2.74,0,0,0-1-1.23,3,3,0,0,0-1.73-.44,3.15,3.15,0,0,0-1.75.44,2.81,2.81,0,0,0-1,1.23,6.29,6.29,0,0,0-.45,1.83c-.07.7-.1,1.46-.1,2.27s0,1.6.1,2.3a6.14,6.14,0,0,0,.44,1.83,2.82,2.82,0,0,0,1,1.21A3.15,3.15,0,0,0,512,5840.68Z"/><path d="M522.53,5840.91h1.3c.42-1,.85-1.95,1.3-2.95s.88-2,1.32-3l1.29-2.86,1.22-2.67h-5.21v2.11h-3.53v-5.95h13.64v2.77q-1.46,3-3,6.15c-1,2.12-2,4.23-2.91,6.36h1.21v3.37h-6.65v-3.36Z"/></g><g id="webgl"><path d="M480.15,6630l6.45-6.86a7,7,0,0,0,1.29-1.62,3.27,3.27,0,0,0,.46-1.65,1.78,1.78,0,0,0-.15-.71,2.17,2.17,0,0,0-.42-.63,2.1,2.1,0,0,0-.68-.44,2.38,2.38,0,0,0-.91-.17,2.62,2.62,0,0,0-1.05.19,2.1,2.1,0,0,0-.75.52,2.77,2.77,0,0,0-.46.78,3.26,3.26,0,0,0-.17.94h-3.71a6.61,6.61,0,0,1,.49-2.59,5.48,5.48,0,0,1,1.32-1.92,5.71,5.71,0,0,1,2-1.19,7.21,7.21,0,0,1,2.43-.41,7.08,7.08,0,0,1,2.31.38,5.89,5.89,0,0,1,1.95,1.08,5.09,5.09,0,0,1,1.34,1.76,5.55,5.55,0,0,1,.49,2.41,4.61,4.61,0,0,1-.45,2,7.63,7.63,0,0,1-1.21,1.77l-5.32,5.75h7v3.78H480.16V6630Z"/><path d="M501.35,6633.34a7.13,7.13,0,0,1-3.34-.72,6.13,6.13,0,0,1-2.25-2,8.77,8.77,0,0,1-1.27-3,16.92,16.92,0,0,1-.39-3.72,17.55,17.55,0,0,1,.37-3.71,9.25,9.25,0,0,1,1.25-3.06,6.22,6.22,0,0,1,2.25-2.07,7.13,7.13,0,0,1,3.41-.76,7,7,0,0,1,3.38.75,6.14,6.14,0,0,1,2.25,2,9,9,0,0,1,1.25,3,17.31,17.31,0,0,1,.38,3.68,16.38,16.38,0,0,1-.4,3.72,8.81,8.81,0,0,1-1.26,3,6.4,6.4,0,0,1-2.27,2.05A7,7,0,0,1,501.35,6633.34Zm0-3.77a3.21,3.21,0,0,0,1.75-.43,2.82,2.82,0,0,0,1-1.21,5.59,5.59,0,0,0,.44-1.83c.07-.7.1-1.46.1-2.3s0-1.57-.1-2.27a6,6,0,0,0-.43-1.83,2.81,2.81,0,0,0-1-1.23,3.06,3.06,0,0,0-1.73-.44,3.13,3.13,0,0,0-1.75.44,2.81,2.81,0,0,0-1,1.23,6,6,0,0,0-.45,1.83c-.07.7-.1,1.46-.1,2.27s0,1.6.1,2.3a6.14,6.14,0,0,0,.44,1.83,2.75,2.75,0,0,0,1,1.21A3.14,3.14,0,0,0,501.35,6629.57Z"/><path d="M510.45,6629.8h1.95v-9.73l-2.87,1.71v-4.28l5.15-3,1.78,0v15.31h2v3.37h-8v-3.38Z"/><path d="M520.48,6629.8h1.95v-9.73l-2.87,1.71v-4.28l5.15-3,1.78,0v15.31h2v3.37h-8v-3.38Z"/></g><g id="lottie"><path d="M477.85,7418.87l6.45-6.86a7.32,7.32,0,0,0,1.29-1.62,3.27,3.27,0,0,0,.46-1.65,1.78,1.78,0,0,0-.15-.71,2,2,0,0,0-.43-.63,2,2,0,0,0-.68-.44,2.29,2.29,0,0,0-.9-.17,2.59,2.59,0,0,0-1.05.19,2.24,2.24,0,0,0-.75.52,2.55,2.55,0,0,0-.46.78,3.26,3.26,0,0,0-.18.94h-3.7a6.61,6.61,0,0,1,.48-2.59,5.64,5.64,0,0,1,1.33-1.92,5.71,5.71,0,0,1,2-1.19,7.49,7.49,0,0,1,4.74,0,5.89,5.89,0,0,1,2,1.08,5.19,5.19,0,0,1,1.33,1.76,5.55,5.55,0,0,1,.49,2.41,4.6,4.6,0,0,1-.44,2,7.69,7.69,0,0,1-1.22,1.77l-5.31,5.75H490v3.78H477.86v-3.2Z"/><path d="M499.05,7422.23a7.11,7.11,0,0,1-3.34-.72,6.13,6.13,0,0,1-2.25-2,8.77,8.77,0,0,1-1.27-3,16.84,16.84,0,0,1-.4-3.72,17.53,17.53,0,0,1,.38-3.71,8.84,8.84,0,0,1,1.25-3.06,6.22,6.22,0,0,1,2.25-2.07,7.13,7.13,0,0,1,3.41-.76,7,7,0,0,1,3.38.75,6.3,6.3,0,0,1,2.25,2,8.78,8.78,0,0,1,1.24,3,16.68,16.68,0,0,1,.39,3.68,16.38,16.38,0,0,1-.4,3.72,9,9,0,0,1-1.27,3,6.28,6.28,0,0,1-2.26,2A7,7,0,0,1,499.05,7422.23Zm0-3.77a3.15,3.15,0,0,0,1.74-.43,2.78,2.78,0,0,0,1-1.21,5.59,5.59,0,0,0,.44-1.82c.06-.71.1-1.47.1-2.31s0-1.57-.1-2.27a6,6,0,0,0-.43-1.83,2.8,2.8,0,0,0-1-1.22,3.59,3.59,0,0,0-3.48,0,2.73,2.73,0,0,0-1,1.22,6,6,0,0,0-.45,1.83c-.07.7-.11,1.46-.11,2.27s0,1.6.11,2.31a5.86,5.86,0,0,0,.44,1.82,2.69,2.69,0,0,0,1,1.21A3.12,3.12,0,0,0,499.05,7418.46Z"/><path d="M508.14,7418.69h2V7409l-2.87,1.71v-4.28l5.14-3,1.79,0v15.31h2v3.37h-8v-3.38Z"/><path d="M519.58,7418.69h1.3c.42-1,.84-1.95,1.29-2.95s.88-2,1.33-3,.86-1.93,1.29-2.86.83-1.82,1.21-2.67h-5.21v2.11h-3.52v-6H530.9v2.78q-1.44,3-3,6.14c-1,2.12-2,4.23-2.92,6.36h1.22v3.37h-6.66v-3.36Z"/></g><g id="line-black"><line x1="503.99" y1="1929.88" x2="503.99" y2="2634.07" style="fill:none;stroke:#000;stroke-miterlimit:2.7999658584594727;stroke-width:1.3999829292297363px"/><line x1="503.99" y1="3507.66" x2="503.99" y2="4211.85" style="fill:none;stroke:#000;stroke-miterlimit:2.7999658584594727;stroke-width:1.3999829292297363px"/><line x1="503.99" y1="4296.55" x2="503.99" y2="5000.74" style="fill:none;stroke:#000;stroke-miterlimit:2.7999658584594727;stroke-width:1.3999829292297363px"/><line x1="503.99" y1="5874.33" x2="503.99" y2="6578.52" style="fill:none;stroke:#000;stroke-miterlimit:2.7999658584594727;stroke-width:1.3999829292297363px"/><line x1="503.99" y1="1140.99" x2="503.99" y2="1845.18" style="fill:none;stroke:#000;stroke-miterlimit:2.7999658584594727;stroke-width:1.3999829292297363px"/><line x1="503.99" y1="5085.44" x2="503.99" y2="5789.63" style="fill:none;stroke:#000;stroke-miterlimit:2.7999658584594727;stroke-width:1.3999829292297363px"/><line x1="503.99" y1="769.29" x2="503.99" y2="1056.29" style="fill:none;stroke:#000;stroke-miterlimit:2.7999658584594727;stroke-width:1.3999829292297363px"/><line x1="503.99" y1="7452.11" x2="503.99" y2="8156.3" style="fill:none;stroke:#000;stroke-miterlimit:2.7999658584594727;stroke-width:1.3999829292297363px"/><line x1="503.99" y1="6663.22" x2="503.99" y2="7367.41" style="fill:none;stroke:#000;stroke-miterlimit:2.7999658584594727;stroke-width:1.3999829292297363px"/><line x1="503.99" y1="2718.77" x2="503.99" y2="3422.96" style="fill:none;stroke:#000;stroke-miterlimit:2.7999658584594727;stroke-width:1.3999829292297363px"/></g></g></g></g></svg>