<svg xmlns="http://www.w3.org/2000/svg" viewBox="0 0 524.47 783"><g id="Ebene" data-name="Ebene 2"><g id="Ebene_1-2" data-name="Ebene 1"><path id="Canvas" d="M375.68,354.17l-12.9-55.6c12.9,18.13,29.2,56.94,29.2,143.17,0,107.79-29.2,96.68-29.2,183.9S414.39,740,414.39,782.79H259.56c0-79,19.83-80.93,19.83-154.12s37-63.51,37-130.89C316.37,427.31,375.68,446.89,375.68,354.17Z" style="fill:#0057ff"/><path id="JS" d="M391.58,441.83c0-86.26-19.47-131.42-29.2-143.21C382.54,314.89,432,326.56,432,377.5s92.47,64.39,92.47,167.27S466.4,724,466.4,783H414c0-42.8-51.6-70-51.6-157.21S391.58,549.66,391.58,441.83Z" style="fill:#00a3ff"/><path id="CSS" d="M279.79,95.56C279.79,64.09,262,25.43,260,0c0,59.83-26.2,27.74-26.2,79.25,0,41.21,8.06,39.23,8.06,81.23-2,19.87-22.58,50.3-22.58,74.9,0,30.74,22.58,39.67,22.58,69.34,0,75.09-147.16,99.53-147.16,172s41.93,72.13,41.93,127.2c0,52.65,82.65,47.82,82.65,105S260,721.27,260,783c0-79,19.83-80.93,19.83-154.12s37-63.51,37-130.89c0-70.48,59.3-50.89,59.3-143.61s-59.3-53.89-59.3-150C316.78,166.42,279.79,134.91,279.79,95.56Z" style="fill:#7000ff"/><path id="Flash" d="M219.24,235.39c0-24.6,20.55-55,22.58-74.9,0-42-8.06-40-8.06-81.23,0,73.31-72.58,80.52-72.58,119.27C161.18,247,183,237.77,183,296S51.11,393,51.11,510.6,109.17,715.53,109.17,783H260c0-61.73-40.72-16.91-40.72-74.1s-82.65-52.36-82.65-105c0-55.07-41.93-54.75-41.93-127.2s147.16-96.89,147.16-172C241.82,275.06,219.24,266.13,219.24,235.39Z" style="fill:#bd00ff"/><path id="WebGL" d="M22.37,591.53c0-48.42,42-140.75,42-140.75s-12.88,39.5-12.88,59.69c0,117.7,58,205,58,272.53H0c0-24,51.52-39.26,51.52-88.23S22.37,652,22.37,591.53Z" style="fill:#ff00b8"/></g></g></svg>