<svg xmlns="http://www.w3.org/2000/svg" viewBox="0 0 400 2435"><line x1="200" y1="62.5" x2="200" y2="2378.5" style="fill:none;stroke:#000;stroke-miterlimit:10"/><circle cx="200" cy="63" r="11" style="fill:#fff;stroke:#000;stroke-miterlimit:10"/><circle cx="200" cy="377.5" r="11" style="fill:#fff;stroke:#000;stroke-miterlimit:10"/><circle cx="200" cy="678.5" r="11" style="fill:#fff;stroke:#000;stroke-miterlimit:10"/><circle cx="200" cy="1176.5" r="11" style="fill:#fff;stroke:#000;stroke-miterlimit:10"/><circle cx="200" cy="1574.5" r="11" style="fill:#fff;stroke:#000;stroke-miterlimit:10"/><circle cx="200" cy="1912.5" r="11" style="fill:#fff;stroke:#000;stroke-miterlimit:10"/><circle cx="200" cy="2374.5" r="11" style="fill:#fff;stroke:#000;stroke-miterlimit:10"/><path d="M285.92,59.11h-.05l-2.47,1.34L283,59l3.11-1.66h1.64V71.53h-1.86Z"/><path d="M294.07,70.18a8.11,8.11,0,0,0,1.56-.07,5.32,5.32,0,0,0,3-1.38A6.19,6.19,0,0,0,300.48,65h-.07a4.16,4.16,0,0,1-3.34,1.53,4.11,4.11,0,0,1-4.2-4.35,4.87,4.87,0,0,1,4.85-5.05c2.91,0,4.71,2.36,4.71,6A9,9,0,0,1,300,69.74a7.12,7.12,0,0,1-4.14,1.9,9,9,0,0,1-1.77.11Zm.7-8.18a2.74,2.74,0,0,0,2.74,3,3.2,3.2,0,0,0,2.8-1.49,1.34,1.34,0,0,0,.17-.7c0-2.43-.9-4.28-2.91-4.28C295.93,58.55,294.77,60,294.77,62Z"/><path d="M305.29,70.18a8,8,0,0,0,1.55-.07,5.32,5.32,0,0,0,3-1.38A6.25,6.25,0,0,0,311.7,65h-.07a4.17,4.17,0,0,1-3.34,1.53,4.11,4.11,0,0,1-4.2-4.35,4.87,4.87,0,0,1,4.85-5.05c2.91,0,4.7,2.36,4.7,6a9,9,0,0,1-2.45,6.67,7.07,7.07,0,0,1-4.13,1.9,9,9,0,0,1-1.77.11ZM306,62a2.74,2.74,0,0,0,2.73,3,3.19,3.19,0,0,0,2.8-1.49,1.24,1.24,0,0,0,.18-.7c0-2.43-.9-4.28-2.91-4.28C307.15,58.55,306,60,306,62Z"/><path d="M324.62,57.32v1.27l-6.19,12.94h-2L322.61,59v0h-7v-1.6Z"/><path d="M281.74,388v-1.18l1.51-1.46c3.63-3.46,5.27-5.29,5.29-7.44a2.53,2.53,0,0,0-2.82-2.77,4.84,4.84,0,0,0-3,1.2l-.61-1.36a6.26,6.26,0,0,1,4-1.44,4,4,0,0,1,4.36,4.13c0,2.63-1.91,4.75-4.9,7.63l-1.14,1.05v.05h6.39V388Z"/><path d="M302.4,380.75c0,4.84-1.79,7.5-4.94,7.5-2.77,0-4.65-2.6-4.7-7.3s2.06-7.39,4.94-7.39S302.4,376.23,302.4,380.75Zm-7.71.22c0,3.7,1.13,5.8,2.88,5.8,2,0,2.91-2.3,2.91-5.93s-.9-5.79-2.89-5.79C295.91,375.05,294.69,377.1,294.69,381Z"/><path d="M313.62,380.75c0,4.84-1.79,7.5-4.94,7.5-2.78,0-4.66-2.6-4.7-7.3s2-7.39,4.94-7.39S313.62,376.23,313.62,380.75Zm-7.72.22c0,3.7,1.14,5.8,2.89,5.8,2,0,2.91-2.3,2.91-5.93s-.9-5.79-2.89-5.79C307.13,375.05,305.9,377.1,305.9,381Z"/><path d="M324.84,380.75c0,4.84-1.8,7.5-4.94,7.5-2.78,0-4.66-2.6-4.71-7.3s2.06-7.39,4.95-7.39S324.84,376.23,324.84,380.75Zm-7.72.22c0,3.7,1.14,5.8,2.89,5.8,2,0,2.9-2.3,2.9-5.93s-.89-5.79-2.88-5.79C318.34,375.05,317.12,377.1,317.12,381Z"/><path d="M281.74,689v-1.18l1.51-1.46c3.63-3.46,5.27-5.29,5.29-7.44a2.53,2.53,0,0,0-2.82-2.77,4.84,4.84,0,0,0-3,1.2l-.61-1.36a6.26,6.26,0,0,1,4-1.44,4,4,0,0,1,4.36,4.13c0,2.63-1.91,4.75-4.9,7.63l-1.14,1v0h6.39V689Z"/><path d="M302.4,681.75c0,4.84-1.79,7.5-4.94,7.5-2.77,0-4.65-2.6-4.7-7.3s2.06-7.39,4.94-7.39S302.4,677.23,302.4,681.75Zm-7.71.22c0,3.7,1.13,5.8,2.88,5.8,2,0,2.91-2.3,2.91-5.93s-.9-5.79-2.89-5.79C295.91,676.05,294.69,678.1,294.69,682Z"/><path d="M313.62,681.75c0,4.84-1.79,7.5-4.94,7.5-2.78,0-4.66-2.6-4.7-7.3s2-7.39,4.94-7.39S313.62,677.23,313.62,681.75Zm-7.72.22c0,3.7,1.14,5.8,2.89,5.8,2,0,2.91-2.3,2.91-5.93s-.9-5.79-2.89-5.79C307.13,676.05,305.9,678.1,305.9,682Z"/><path d="M323.88,676.42h-5.43l-.54,3.65a7.87,7.87,0,0,1,1.15-.09,6,6,0,0,1,3.07.77,4.05,4.05,0,0,1,2,3.65c0,2.78-2.21,4.85-5.29,4.85a6.91,6.91,0,0,1-3.54-.87l.48-1.47a6.36,6.36,0,0,0,3,.79,3.13,3.13,0,0,0,3.36-3.08c0-1.84-1.24-3.15-4.09-3.15a15.71,15.71,0,0,0-2,.15l.92-6.82h6.8Z"/><path d="M281.74,1187.46v-1.18l1.51-1.47c3.63-3.45,5.27-5.29,5.29-7.43a2.54,2.54,0,0,0-2.82-2.78,4.84,4.84,0,0,0-3,1.21l-.61-1.36a6.24,6.24,0,0,1,4-1.44,4,4,0,0,1,4.36,4.13c0,2.62-1.91,4.74-4.9,7.63l-1.14,1v0h6.39v1.6Z"/><path d="M302.4,1180.2c0,4.83-1.79,7.5-4.94,7.5-2.77,0-4.65-2.6-4.7-7.3s2.06-7.39,4.94-7.39S302.4,1175.67,302.4,1180.2Zm-7.71.22c0,3.69,1.13,5.79,2.88,5.79,2,0,2.91-2.29,2.91-5.92s-.9-5.8-2.89-5.8C295.91,1174.49,294.69,1176.55,294.69,1180.42Z"/><path d="M308.35,1175h0l-2.47,1.33-.38-1.46,3.11-1.66h1.64v14.21h-1.86Z"/><path d="M324.84,1180.2c0,4.83-1.8,7.5-4.94,7.5-2.78,0-4.66-2.6-4.71-7.3s2.06-7.39,4.95-7.39S324.84,1175.67,324.84,1180.2Zm-7.72.22c0,3.69,1.14,5.79,2.88,5.79,2,0,2.91-2.29,2.91-5.92s-.89-5.8-2.88-5.8C318.34,1174.49,317.12,1176.55,317.12,1180.42Z"/><path d="M281.74,1585.1v-1.18l1.51-1.47c3.63-3.45,5.27-5.29,5.29-7.43a2.53,2.53,0,0,0-2.82-2.78,4.89,4.89,0,0,0-3,1.2l-.61-1.35a6.27,6.27,0,0,1,4-1.45,4,4,0,0,1,4.36,4.14c0,2.62-1.91,4.74-4.9,7.63l-1.14,1v0h6.39v1.6Z"/><path d="M302.4,1577.84c0,4.83-1.79,7.5-4.94,7.5-2.77,0-4.65-2.6-4.7-7.3s2.06-7.4,4.94-7.4S302.4,1573.31,302.4,1577.84Zm-7.71.22c0,3.69,1.13,5.79,2.88,5.79,2,0,2.91-2.29,2.91-5.92s-.9-5.8-2.89-5.8C295.91,1572.13,294.69,1574.19,294.69,1578.06Z"/><path d="M308.35,1572.68h0l-2.47,1.33-.38-1.46,3.11-1.67h1.64v14.22h-1.86Z"/><path d="M315.85,1582.89a6.46,6.46,0,0,0,3.15.9c2.47,0,3.24-1.58,3.21-2.76,0-2-1.81-2.84-3.67-2.84h-1.07v-1.44h1.07c1.4,0,3.17-.73,3.17-2.41,0-1.14-.72-2.14-2.49-2.14a5.17,5.17,0,0,0-2.84.94l-.51-1.4a6.76,6.76,0,0,1,3.72-1.1c2.8,0,4.07,1.67,4.07,3.39a3.53,3.53,0,0,1-2.63,3.35v0a3.7,3.7,0,0,1,3.17,3.65c0,2.28-1.77,4.27-5.18,4.27a7.22,7.22,0,0,1-3.69-1Z"/><path d="M283.23,2385.12v-1.18l1.4-1.47c3.38-3.45,4.91-5.29,4.93-7.43a2.46,2.46,0,0,0-2.63-2.78,4.38,4.38,0,0,0-2.81,1.2l-.57-1.35a5.59,5.59,0,0,1,3.75-1.44,3.86,3.86,0,0,1,4.05,4.13c0,2.62-1.77,4.74-4.56,7.63l-1.06,1.05v0h5.95v1.6Z"/><path d="M302.46,2377.86c0,4.83-1.67,7.5-4.6,7.5-2.58,0-4.34-2.6-4.38-7.3s1.92-7.39,4.6-7.39S302.46,2373.33,302.46,2377.86Zm-7.18.22c0,3.69,1.05,5.79,2.68,5.79,1.83,0,2.71-2.29,2.71-5.92s-.84-5.8-2.69-5.8C296.42,2372.15,295.28,2374.21,295.28,2378.08Z"/><path d="M304.11,2385.12v-1.18l1.4-1.47c3.38-3.45,4.91-5.29,4.93-7.43a2.46,2.46,0,0,0-2.63-2.78,4.38,4.38,0,0,0-2.81,1.2l-.57-1.35a5.59,5.59,0,0,1,3.75-1.44,3.86,3.86,0,0,1,4.05,4.13c0,2.62-1.77,4.74-4.56,7.63l-1.06,1.05v0h5.94v1.6Z"/><path d="M318.43,2372.7h0l-2.3,1.33-.34-1.46,2.89-1.66h1.52v14.21h-1.73Z"/><path d="M281.74,1923.12v-1.18l1.51-1.47c3.63-3.45,5.27-5.29,5.29-7.43a2.54,2.54,0,0,0-2.82-2.78,4.89,4.89,0,0,0-3,1.2l-.61-1.35a6.24,6.24,0,0,1,4-1.44,4,4,0,0,1,4.36,4.13c0,2.62-1.91,4.74-4.9,7.63l-1.14,1v0h6.39v1.6Z"/><path d="M302.4,1915.86c0,4.83-1.79,7.5-4.94,7.5-2.77,0-4.65-2.6-4.7-7.3s2.06-7.39,4.94-7.39S302.4,1911.33,302.4,1915.86Zm-7.71.22c0,3.69,1.13,5.79,2.88,5.79,2,0,2.91-2.29,2.91-5.92s-.9-5.8-2.89-5.8C295.91,1910.15,294.69,1912.21,294.69,1916.08Z"/><path d="M308.35,1910.7h0l-2.47,1.33-.38-1.46,3.11-1.66h1.64v14.21h-1.86Z"/><path d="M324.62,1908.91v1.26l-6.19,12.95h-2l6.17-12.57v0h-7v-1.59Z"/></svg>