<svg xmlns="http://www.w3.org/2000/svg" xmlns:xlink="http://www.w3.org/1999/xlink" viewBox="0 0 611.79 7710.41"><defs><linearGradient id="Unbenannter_Verlauf_12" x1="393.57" y1="-2301.38" x2="393.57" y2="777.62" gradientTransform="matrix(0.7, 0, 0, -0.7, 253.11, 6099.46)" gradientUnits="userSpaceOnUse"><stop offset="0" stop-color="#a366ff"/><stop offset="1" stop-color="#60f"/></linearGradient><linearGradient id="Unbenannter_Verlauf_13" x1="-50.09" y1="-2301.38" x2="-50.09" y2="5924.62" gradientTransform="matrix(0.7, 0, 0, -0.7, 253.11, 6099.46)" gradientUnits="userSpaceOnUse"><stop offset="0" stop-color="#ff5d7d"/><stop offset="0.5" stop-color="#f03"/><stop offset="1" stop-color="red"/></linearGradient><linearGradient id="Unbenannter_Verlauf_14" x1="301.8" y1="-2301.38" x2="301.8" y2="2998.07" gradientTransform="matrix(0.7, 0, 0, -0.7, 253.11, 6099.46)" gradientUnits="userSpaceOnUse"><stop offset="0" stop-color="#e16aff"/><stop offset="0.5" stop-color="#c0f"/><stop offset="1" stop-color="#f0f"/></linearGradient><linearGradient id="Unbenannter_Verlauf_15" x1="0.4" y1="-2301.38" x2="0.4" y2="7304.67" gradientTransform="matrix(0.7, 0, 0, -0.7, 253.11, 6099.46)" gradientUnits="userSpaceOnUse"><stop offset="0" stop-color="#ffff90"/><stop offset="0.5" stop-color="#ff6"/><stop offset="1" stop-color="#ff0"/></linearGradient><linearGradient id="Unbenannter_Verlauf_16" x1="98.62" y1="-2301.38" x2="98.62" y2="4011.62" gradientTransform="matrix(0.7, 0, 0, -0.7, 253.11, 6099.46)" gradientUnits="userSpaceOnUse"><stop offset="0" stop-color="#c3ff87"/><stop offset="0.5" stop-color="#9f3"/><stop offset="1" stop-color="lime"/></linearGradient><linearGradient id="Unbenannter_Verlauf_17" x1="111.3" y1="-2301.38" x2="111.3" y2="-447.58" gradientTransform="matrix(0.7, 0, 0, -0.7, 253.11, 6099.46)" gradientUnits="userSpaceOnUse"><stop offset="0" stop-color="#93ffe4"/><stop offset="1" stop-color="#3fc"/></linearGradient><linearGradient id="Unbenannter_Verlauf_18" x1="-4.26" y1="2673.62" x2="281.82" y2="2673.62" gradientTransform="matrix(0.7, 0, 0, -0.7, 253.11, 6099.46)" gradientUnits="userSpaceOnUse"><stop offset="0" stop-color="#6aedff"/><stop offset="0.5" stop-color="#00e0ff"/><stop offset="1" stop-color="aqua"/></linearGradient><linearGradient id="Unbenannter_Verlauf_19" x1="151.47" y1="-2301.38" x2="151.47" y2="8302.62" gradientTransform="matrix(0.7, 0, 0, -0.7, 253.11, 6099.46)" gradientUnits="userSpaceOnUse"><stop offset="0" stop-color="#5b93ff"/><stop offset="0.5" stop-color="#5b93ff"/><stop offset="1" stop-color="blue"/></linearGradient></defs><g id="Ebene_2" data-name="Ebene 2"><g id="Ebene_1-2" data-name="Ebene 1"><g id="webgl"><path d="M590.2,7373.19c3.51,50.5,3.51,101-17.67,151.5-14.61,34.8-3.72,119.73-.16,185.72h-127l18.2-2155.28h84.75l7.08,25.25c6.82,25.25,14.68,45.35,25.07,95.85,10.79,50.5-9.06,152.5-5.29,203,3.51,50.5,21.7,104.9,11.11,155.4s-16.79,76-16.79,126.52,21.19,101,14.11,151.51c-6.82,50.49,22,101,4.55,151.5-17.68,50.5-35.88,101-14.69,151.5s-1,101,9.62,151.51-10.59,101-7.08,151.5c3.78,50.5,31.57,101,35.35,151.5,3.51,50.51-17.67,101-24.75,151.51C579.81,7272.18,586.43,7322.68,590.2,7373.19Z" style="fill:url(#Unbenannter_Verlauf_12)"/></g><g id="js"><path d="M420.1,5180.27c0,78.51-17.6,1510.85-17.6,1589.38,0,30.57-.19,447.61-.42,940.76H9.57c7.54-25.37,2.12-77.61,7.41-102.2,15.83-79.13,32.82-131.22,36-203.7,3.38-77.92-9.17-164.11-9-236.6-.18-77.31-.81-149,11.63-227.49C68,6863.7,60,6755.74,44,6677.22c-16-76.11,17.21-116.78-11.43-195.3C4.25,6406.41,17,6335.05,17.19,6256.52c-.18-74.9-26.27-149.4-13.83-227.93,12.46-74.29,26.78-155.54,45.57-234.06,19.14-73.7-11.81-146.47-5.3-219,6.53-79.12,51.62-149.55,42.32-222-9.67-78.52-19.16-164.54-25.68-237-6.53-77.92,33.26-150.39,33.08-222.87.18-77.31-39.61-157.67-29.95-236.18,9.31-76.72,41.32-151,56.91-229.54,15.83-76.1,0-150.85-3.16-229.37-3.38-75.5,6.54-151.16,9.5-229.68,3-74.9,16-151,9.49-229.54-6.52-74.29-31.41-151-56.9-229.52-25.5-73.7,26-151,22.57-223.5-3.14-79.12-38-157-25.39-229.52,12.87-77.92,53.21-227,56.6-299.52,11.26-108.75-26-233.66,16.26-354.2,85.69-244.3,62.95-450.79,62.95-450.79l195.83,558.59c0,38.05-9.9,307.86-9.9,386.39,0,75.5,12.45,305.84,12.45,384.36V4579.41c0,73.69,25.49,144,25.49,216.48C436.11,4875,420.1,5107.78,420.1,5180.27Z" style="fill:url(#Unbenannter_Verlauf_13)"/></g><g id="canvas"><path d="M521.27,6465.82c-6.42,41.48-2.75,81.63-2.87,125.3.12,41.8,4,83.73-4.23,127.4-8.28,42.42,4.38,87.21-1.81,130.88-6.42,42.73,2.24,84.21,10.52,127.88,8.27,43.35,16.94,87.34,8.38,127.89-8.38,43.66-30.87,85.89-33,126.44-2.24,44,16.31,88.77,20.37,132.43,4.21,41.49-8.39,84.22-10.48,127.89-2.24,41.79,6.42,84.21,12.6,127.88,3.47,22.95-6.83,57.14,2.9,90.6H369.24l18.2-3674.81s80.25-82.17,80.25,6.15,47.66,316.37,47.54,356.92c.12,44-21.15,87.33-16.82,131,4.33,41.48,24.14,137.23,39,180.9,14.69,41.79-8,145.52-5.91,189.19,2.25,42.42,38.21,109.39,21.55,153.06-16.83,42.73-54.64,84.22-56.72,127.88-2.24,43.36,31.63,87.34,33.6,127.88,2,43.68-27.18,87.34-25.21,127.88,2,44,35.84,87.34,48.33,131,12.72,41.48,4.06,84.21-4.21,127.88-8.28,41.8-16.94,84.22-25.21,127.88-8.27,42.42-16.94,84.22-18.9,127.88-2,42.74,2,84.22,8.39,127.89,6.18,43.35-8.57,85.88,3.92,126.43,12.72,43.66,8.36,78.45,12.7,119C534.06,6368.4,527.45,6422.15,521.27,6465.82Z" style="fill:url(#Unbenannter_Verlauf_14)"/></g><g id="html5"><path d="M100.66,7710.41v-20c0-20,0-60.65-3.52-99.12-3.39-40.86-10.64-80.61-12.28-120.93a537.51,537.51,0,0,1,8.79-119.09c7-40.67,17.55-80.61,8.76-120.92-8.66-39.58,22.78-78.78,15.86-119.09-6.91-40.49-6.67-80.61,4-120.92,10.44-39.39,6.42-78.79,1.06-119.09-5.18-40.31,6.75-78.87,1.58-119.18-5.36-39.38-28.78-79.39-25.38-119.69,3.52-40.13-11.41-81.76-6.14-122.06,5.28-39.21-25.19-78.79-16.39-119.09,8.67-39.94,22.81-80.61,12.17-119.09-10.45-40.86-27.08-80.61-27-120.92-.1-39.76,30.22-80.62,37.14-119.09,6.92-40.68-6.92-80.62-8.79-120.93-1.74-39.58,19.26-93.92,19.26-134.22,0-40.49,32.42-87.79,30.68-128.1-1.88-39.39-6.8-53.49-12.17-93.8-5.17-40.3,33.21-71.69,28-112-5.36-39.39-23.66-150.09-13.22-190.39,10.64-40.13,21.26-97.6,30.15-137.9,8.89-39.21-14-201-12.17-221.2l78.28,147.7h56.07l-18,30.8c0,20,4.76,75.62,4.76,114.1,0,40.85-10.05,81.49-10.05,121.79,0,39.76,33.85,80.53,33.85,119,0,40.68-11.63,47.9-11.63,88.2,0,39.58,7.93,101,7.93,141.32v839.12c0,40.86-26.66,82.72-26.66,123V7697.82Z" style="fill:#ff6b00"/></g><g id="css"><path d="M172.48,7710.41l-11.26-28.65c-11.48-28.18-33.69-86.86-42.32-142.31a354.16,354.16,0,0,1,16.93-170.95c19.73-56.38-4.07-110.9,10-171,13.91-55.91,8.63-110.9,11.26-171,2.65-55.45,14.28-110.9-5.66-171-19.72-55,9.36-146.59-16-206.66-25.39-54.52-7.19-110.89,4.08-166.33C151,6423.48,151,6402.81,154,6347.37c2.8-58.68-14.13-115.52-14.13-171,0-58.22,16.93-115.51,14.13-171-3-57.76,7-113.41-1.59-168.86-8.31-57.76-3-115.51,11.26-171,14.28-57.29,27.35-118.07,27.5-173.52-.16-56.83-45.48-115-34.38-170.49,11.11-56.37,22.74-115.51,39.51-171,17.09-56.37,5.45-110.89-19.78-171-25.55-55.91-7.93-110.89-25-171-16.76-55.44-22.59-111.26-2.64-171.33,19.72-55,41.78-110.51,58.71-170.58,16.92-54.52,16.92-110.89-2.8-166.33-19.95-59.14-40.58-112.33-37.93-167.78,2.65-58.68,29.62-118.69,49.19-174.13,19.57-58.22,14.28-115.51-11.26-171-25.23-57.76,9.14-132.86-10.43-188.3-19.57-57.76-55-98.16-37.92-153.61,16.76-57.29,6.19-115.51,14.49-171,8.62-56.83,15.12-110,1.22-165.43-14.13-56.37-15.34-112.55-6.88-168,8.46-56.37,8.46-119.37,22.59-179.43,13.91-55.91,8.62-110.89,2.8-171-5.82-55.45,29.49-110.89,34.94-171,5.66-55,46.76-129.78,41.09-189.84-5.44-54.52-2.64-92-25-147.45-22.59-59.14-39.52-115.51-22.59-171,16.92-58.68-54.83-155.34-26.64-210.79,28.41-58.22,39-118.15,39.2-173.6-.16-57.75-73.41-242.43-24.07-387.09,41.78-122.5,37.15-154.33,37.55-154,9.13,7.39,85.16,129.63,85.16,182.7,0,56.37,22.75,85.25,22.75,140.7,0,56.37,23.8,58.93,23.8,119,0,55.9,10.57,252.06,10.57,312.12,0,55.45,4.24,487.12,4.24,542.57,0,58.68-24.33,188.85-24.33,244.29,0,58.22-9,76.85-9,132.3,0,57.76-27,100-27,155.4,0,57.75-30.14,106.25-30.14,161.7,0,57.29,20.62-8.55,20.62,46.9,0,56.83,9.52,106.25,9.52,161.69,0,56.37,24.34,110.46,24.34,165.9,0,56.37,11.63,219.93,11.63,280,0,55.91,2.11,135.23,2.11,195.3,0,55.44-57.65,142.23-57.65,202.29,0,55,21.69,93.24,21.69,153.3,0,54.52-5.82,133.55-5.82,189,0,59.14-10.05,52.35-10.05,107.8,0,58.68-5.82,229.45-5.82,284.89v215.6c0,57.76-53.42,115.51-53.42,170.95v341.92c0,56.83,48.13,98.09,48.13,153.52,0,56.38-7.93,130.06-7.93,185.5,0,56.37-40.2,113.77-40.2,173.84v512.88c0,54.52-18.2,110.89-18.2,166.33V7710.39H172.48Z" style="fill:url(#Unbenannter_Verlauf_15)"/></g><g id="svg"><path d="M459.68,3734.55c-1.75,42.07-3.52,84.77-5.35,128.73C452.55,3906,450.8,3948.06,449,3992c-1.78,43-3.52,84.79-5.35,128.75-1.81,43.64-3.65,87.91-5.35,128.74-1.83,44-3.66,87.92-5.36,128.74-1.84,44.27-3.65,87.92-5.48,131.88-1.73,41.76-3.53,84.78-5.35,128.74-1.75,42.08-3.52,84.78-5.36,128.74-1.77,42.7-3.52,84.78-5.35,128.74-1.79,43-3.52,84.78-5.35,128.74-1.81,43.65-3.65,87.92-5.36,128.74-1.82,44-3.65,87.92-5.35,128.75-1.84,44.27-3.65,87.92-5.48,131.88-1.74,41.76,24.81,96.71,23,140.67-1.75,42.08,5.53,120.54,3.7,164.5-1.78,42.71,4.48,139.44,2.65,183.4-1.79,43-15.63,85.54-17.46,129.5-1.81,43.64-12.59,42.47-14.28,83.3-1.83,43.95-28,30.25-29.71,71.07-1.84,44.28-3.65,87.92-5.48,131.88C350.5,6360.54,430,6433.06,428.15,6477,426.4,6519.1,376.86,6655,375,6698.92c-1.78,42.7,37.26,142.94,35.44,186.9-1.79,43-29.91,82.74-31.74,126.69-1.81,43.65-10.46,94.28-12.17,135.1-1.82,44,4.34,126.48,2.65,167.3-1.84,44.28-19.86,16.24-21.69,60.2-1.73,41.76,23.52,166,21.69,210-1.37,32.87,25.7,83.68,36.73,125.3H203.57c1.94-92.91-20.73-279.32-18.92-319.2,1.68-44.29,21.77-117.41,17.79-161.8-4.07-42.18,10.87-108.49-7.22-153.9C177.27,7032,201,6897.77,200,6853.6c-1.23-42.92-24.19-121.45,0-163.78,24.34-41.38,31-82.94,35.66-126.7,4.83-43.43-23.71-79.92-24.65-120.93-.81-44.16,40.09-85.27,39.15-126.29-.8-44.46-25.5-87-40.42-132.18-15.32-43-20.82-89.59-7.9-132.74,12.84-41.27,26.23-83.13,39.15-126.28,12.86-41.9,4.48-82.91,8.95-126.67,4.43-42.83,22.64-85.2,15.86-129.79-6.49-44.25-16.26-89.36-31.31-131.41-15.23-45.2-12.18-100.75-16.29-142-4-44.7-13.94-77.51-3.82-120.87,10.35-41.14,17.42-83.77,19.41-127.72,1.58-42.08-1.92-85.18,11-128.33C257.64,4976,287.9,4936,298,4892.66c10.41-42.39.52-85-8.75-129.77-9.27-44.45-19.06-89.57-5.9-129.56,13.08-43.14-10.44-97.37-5.94-138,4.85-44.05-4.49-81.24-8.1-125.6-3.92-42.18,14.76-84,19.4-127.72,4.76-41.85-5.08-85.41-11.55-130-6.83-43.33,7.57-87.31.78-131.9-6.5-43.62,40.11-154.44,36.5-198.8-3.84-44,16.39-235.19,7.41-286.29-8.18-46.48-41.26-174.3-41.26-174.3l141.75-29.4C421.47,3312.71,461.51,3690.59,459.68,3734.55Z" style="fill:url(#Unbenannter_Verlauf_16)"/></g><g id="lottie"><path d="M401.67,7710.41H262.93c-5.37-36.21-13.44-72.68-5.79-107.45,11-48.74,25.9-84.59,28.54-136.15,2.21-49.47-7.95-113.23-8.55-163.65-.43-49.69,15.17-106.44,9.08-156.25-6.08-50.16-33.73-95.86-42.52-148-9.08-50.42,21.76-96.78,43.69-145.3,73.4-156.77,75.65-332.7,69.39-382.17L420,6412.76c-2.37,49.46-4.77,99.62-7.11,148.37-2.37,49.45-23,101-25.48,151.89-2.37,49.46-4.72,98.56-7.11,148.37-2.37,49.45-4.79,100-7.11,148.37-2.54,53-4.84,101-7.28,151.9L358.78,7310c-2.38,49.45-4.81,100.32-7.11,148.36-2.55,53,26.87,87.41,24.45,137.93C374.56,7628.84,391,7671.23,401.67,7710.41Z" style="fill:url(#Unbenannter_Verlauf_17)"/></g><g id="flash"><path d="M390.09,2365.27v155.22c0,51.74,46,115,46,166.78s-46,91.93-46,143.67v465.67c0,51.74,21.68,91.4,21.68,143.15s38.61,110.65,38.61,162.4v327.59c0,51.75-19,112.76-19,164.5s-41.26,82-41.26,133.7V5469.73c0,51.75,46,116.26,46,168s1.59,107.86,1.59,159.6-47.6,86.33-47.6,138.07v155.23H339.31l2.8-25.88c3-25.87-7.57-111.38-1.74-163.12s38.45-236,21.68-287.7c-17.08-51.74-28.56-92.45-22.74-144.2s-22.74-103.48-33.85-155.22-5.82-103.48,5.66-155.22c11.26-51.75,28.2-103.48,36.66-155.23a477.82,477.82,0,0,0,0-155.22c-8.46-51.74-25.39-103.48-31-155.22-5.45-51.75-9.84-103.83-1.22-155.58,8.3-51.74,29.62-103.13,12.54-154.87-16.77-51.74-10.79-103.48-7.78-155.22,2.8-51.74-11.79-112.06,7.93-163.8,19.94-51.74,22.22-94.9,19.57-146.65s-13.75-111-7.93-162.75,15.59-95.95,10.14-147.69c-5.66-51.75-10.67-103.48-30.4-155.23-19.94-51.74-42.15-103.48-39.51-155.22s31.21-103.48,31.05-155.22c.16-51.75-28.4-103.48-45.17-155.23-17.09-51.74-22.37-103.48-5.61-155.22,17.09-51.74,56.23-103.48,64.85-155.22,8.3-51.75,39.52-96.31,42.15-148s-1.21-35.73,12.7-61.6l10-74.9v-25.9Z" style="fill:url(#Unbenannter_Verlauf_18)"/></g><g id="gif"><path d="M338.08,786.79c-4.21,64.29-5,135.63,3.34,205.1,8.63,63.05,52.9,106,33.32,170.1-19.57,68.4,21.53,173.17,21.69,237.29-.16,67.87-6.75,154.27,10,218.4,17.09,67.33,16.93,259.94,11.48,324.06-5.66,66.8,50.41,140.31,41.95,204.43-8.47,66.8-2.65,106.68,5.81,170.8,8.47,66.26-3,137.47-5.82,201.6-3,65.73,61.76,172.47,41.82,236.6-19.74,65.19-20.21,95.12-6.09,159.24,13.91,65.2-38.34,196.88-35.7,266.35,2.64,64.66-15.19,118.13-23.8,187.6-8.3,64.13,39.3,131.16,50.78,200.64,11.26,63.59-21.16,128.25-26.82,197.72-5.45,63.05,22.95,187.11,6.19,251.23-17.09,68.4-27,74.73-15.87,138.86,11.11,67.86,15.34,133.59,12.32,197.72-2.8,67.33,21.69,133.59,2,197.72-19.94,66.8-35.28,133.59-10.05,197.72,25.55,66.8,5.44,62,25.38,126.17,19.73,66.26,11.48,174.57-2.64,238.7-13.91,65.73-35.81,135.37-41.26,199.5-5.66,65.19,44.43,129.77,36,193.89-8.47,65.19,42.31,160.86,31.05,230.33-11.48,64.66-45,116-39.52,185.47,5.67,64.12,2.8,109.73,0,179.2-3,63.59-43.21,120.93-43.37,190.39.16,63.06,48.29,166.35,42.85,230.48-5.66,68.4-76.38,135.9-59.46,200,16.93,67.86,14.81,131.28,31.74,195.41,16.92,67.33,0,133.59-5.66,197.72-5.45,66.79-29.78,141.23-24,205.36,5.81,66.8,43.74,171.77,35.44,235.9-8.63,66.26,6.35,151.9,6.35,151.9H348.61L343,7677.28c-5.45-32.6-17.09-100.47-16.93-164.59-.16-65.19,11.48-133.6,16.93-197.72,5.66-65.19,5.66-128.26-2.8-197.72-8.46-64.66-25.39-128.25-25.39-197.72,0-64.13,16.93-128.25,16.93-197.72,0-63.59,1.27-128.25,15.4-197.72C361,6461,328.73,6366.14,331.38,6302c2.65-68.41-17.46-97.6-28.93-161.73-11.26-67.86,5.66-133.59,25.39-197.72,19.94-67.33,42.15-133.59,53.63-197.72,11.26-66.79,28.56-143.11,6-207.22-22.37-66.8-26.45-130.39-29.09-194.51-2.65-66.26-6-149.46,2.64-213.59,8.3-65.73,31.21-191.37,16.93-255.5-14.28-65.19,8.46-115.77,2.64-179.89-5.81-65.2-41.78-72.43-22.21-141.9,19.57-64.66-21.69-128.25.68-197.72,22.59-64.13,41.26-127.11,21.53-196.58-19.95-63.59,9-129.38-5.29-198.86-14.28-63-2.65-128.25,2.8-192.37,5.66-68.4,5.66-133.59,0-197.72-5.45-67.86-17.09-133.59-8.47-197.72,8.3-67.33-28.72-155.09-26.07-219.21,2.64-66.81,46-112.1,34.54-176.23-11.27-66.8-11.27-133.59-14.07-197.72-3-66.26-8.31-133.59-5.67-197.72,2.65-65.73-6.35-145.41-3.7-209.53,2.65-65.19,18-121.78,20.63-185.9,2.64-65.19-61.36-173.75-47.45-243.22,14.13-64.66,31.05-128.25,25.39-197.72-5.44-64.12-34-128.25-42.31-197.72-8.63-63.58,3-128.25,0-197.72-2.8-63-19.74-128.25-8.47-192.37,11.48-68.4-65.37-119.1-56.75-183.22,8.3-67.87-32.91-320.6-32.91-459.2,0-135.79,60.89-158.89,60.89-226.09,0,0,10.5,121.1,42,187.59C350.15,548.07,347.09,649.1,338.08,786.79Z" style="fill:url(#Unbenannter_Verlauf_19)"/></g><g id="zeitstrahl"><circle cx="273.68" cy="6.3" r="6.3" style="fill:#fff"/><circle cx="273.68" cy="574.69" r="6.3"/><circle cx="273.68" cy="1363.58" r="6.3"/><circle cx="273.68" cy="659.39" r="2.1"/><line x1="273.68" y1="659.39" x2="273.68" y2="1363.58" style="fill:none;stroke:#000;stroke-miterlimit:2.7999658584594727;stroke-width:1.3999829292297363px"/><line x1="273.68" y1="6.3" x2="273.68" y2="287.7" style="fill:none;stroke:#fff;stroke-miterlimit:2.7999658584594727;stroke-width:1.3999829292297363px"/><line x1="273.68" y1="287.7" x2="273.68" y2="574.69" style="fill:none;stroke:#000;stroke-miterlimit:2.7999658584594727;stroke-width:1.3999829292297363px"/><path d="M248.26,626h2v-9.73L247.35,618v-4.28l5.14-3,1.79,0V626h2v3.38h-8V626Z"/><path d="M260.63,629.37l3.78-6.64a3.4,3.4,0,0,1-.64,0,5.4,5.4,0,0,1-.58-.1,6.16,6.16,0,0,1-2-.72,6.39,6.39,0,0,1-1.59-1.29,6.06,6.06,0,0,1-1.06-1.74,5.55,5.55,0,0,1-.38-2.07,5.83,5.83,0,0,1,.51-2.48,6.09,6.09,0,0,1,3.44-3.29,6.6,6.6,0,0,1,2.51-.48,6.4,6.4,0,0,1,2.47.48,6.53,6.53,0,0,1,2.06,1.29,6.19,6.19,0,0,1,1.39,2,5.72,5.72,0,0,1,.51,2.41,5,5,0,0,1-.13,1.18,7.18,7.18,0,0,1-.33,1.09,9.86,9.86,0,0,1-.49,1c-.17.35-.37.7-.56,1L265,629.37Zm4.09-10.12A3.38,3.38,0,0,0,266,619a2.54,2.54,0,0,0,1-.76,4.76,4.76,0,0,0,.29-.69,3.07,3.07,0,0,0,.11-.82,2.61,2.61,0,0,0-.16-.88,2.71,2.71,0,0,0-.51-.84,2.41,2.41,0,0,0-.86-.62,3.13,3.13,0,0,0-2.25-.06,3.27,3.27,0,0,0-.9.49,2.63,2.63,0,0,0-.64.8,2.46,2.46,0,0,0,0,2.12,2.57,2.57,0,0,0,.62.8,3.06,3.06,0,0,0,.92.52A3.36,3.36,0,0,0,264.72,619.25Z"/><path d="M278.9,610.35a6.48,6.48,0,0,1,2.37.44,6.23,6.23,0,0,1,1.93,1.2,5.44,5.44,0,0,1,1.3,1.75,4.76,4.76,0,0,1,.48,2.11,4.38,4.38,0,0,1-.49,2,5.76,5.76,0,0,1-1.35,1.69,5.7,5.7,0,0,1,1.64,1.79,4.51,4.51,0,0,1,.6,2.32,5.56,5.56,0,0,1-.49,2.28,6.19,6.19,0,0,1-1.37,1.92,6.42,6.42,0,0,1-2.06,1.31,6.76,6.76,0,0,1-2.55.48,6.32,6.32,0,0,1-1.75-.23,6.71,6.71,0,0,1-1.56-.63,6.93,6.93,0,0,1-1.3-1,6.38,6.38,0,0,1-1-1.22,5.92,5.92,0,0,1-.64-1.4,5.2,5.2,0,0,1-.23-1.5,4.6,4.6,0,0,1,.62-2.38,5.61,5.61,0,0,1,1.66-1.81,5.41,5.41,0,0,1-1.34-1.65,4.18,4.18,0,0,1-.48-2,5.12,5.12,0,0,1,.47-2.16,5.63,5.63,0,0,1,1.3-1.76,6.22,6.22,0,0,1,4.23-1.64ZM276,623.62a2.11,2.11,0,0,0,.22,1,2.36,2.36,0,0,0,.62.79,2.8,2.8,0,0,0,.92.54,3.29,3.29,0,0,0,1.14.2,3.24,3.24,0,0,0,1.13-.2,2.85,2.85,0,0,0,.91-.54,2.47,2.47,0,0,0,.61-.79,2.25,2.25,0,0,0,.22-1,2.15,2.15,0,0,0-.22-.93,2.63,2.63,0,0,0-.61-.77,3,3,0,0,0-.91-.53,3.19,3.19,0,0,0-1.13-.2,3.25,3.25,0,0,0-1.14.2,3.08,3.08,0,0,0-.92.53,2.51,2.51,0,0,0-.62.77A2,2,0,0,0,276,623.62Zm.45-7.57a1.79,1.79,0,0,0,.18.79,2.17,2.17,0,0,0,.52.66,2.88,2.88,0,0,0,2.72.45,2.7,2.7,0,0,0,.78-.45,2.24,2.24,0,0,0,.53-.66,1.6,1.6,0,0,0,.2-.79,1.69,1.69,0,0,0-.2-.82,2.5,2.5,0,0,0-.53-.69,2.54,2.54,0,0,0-.78-.47,2.83,2.83,0,0,0-1-.17,2.58,2.58,0,0,0-1.75.64,2.32,2.32,0,0,0-.52.69A1.92,1.92,0,0,0,276.45,616.05Z"/><path d="M288.38,626h1.3c.42-1,.85-2,1.3-3l1.32-3,1.29-2.86c.43-.93.83-1.82,1.21-2.67h-5.2v2.12h-3.53v-6H299.7v2.78c-1,2-1.95,4-3,6.14s-2,4.23-2.92,6.36H295v3.37h-6.66Z"/><circle cx="273.68" cy="2152.47" r="6.3"/><circle cx="273.68" cy="1448.28" r="2.1"/><line x1="273.68" y1="1448.28" x2="273.68" y2="2152.47" style="fill:none;stroke:#000;stroke-miterlimit:2.7999658584594727;stroke-width:1.3999829292297363px"/><path d="M248.61,1414.86h2v-9.73l-2.87,1.71v-4.28l5.14-3,1.79,0v15.31h2v3.38h-8v-3.39Z"/><path d="M261,1418.26l3.78-6.64a3.27,3.27,0,0,1-.63,0,5.18,5.18,0,0,1-.59-.1,6.32,6.32,0,0,1-3.54-2,5.88,5.88,0,0,1-1.07-1.74,5.55,5.55,0,0,1-.38-2.07,6,6,0,0,1,.51-2.48,6.17,6.17,0,0,1,3.44-3.29,6.65,6.65,0,0,1,2.52-.48,6.47,6.47,0,0,1,2.47.48,6.6,6.6,0,0,1,2,1.29,6,6,0,0,1,1.39,2,5.72,5.72,0,0,1,.51,2.41,5.62,5.62,0,0,1-.12,1.18,8.58,8.58,0,0,1-.34,1.09c-.14.36-.31.7-.48,1s-.37.7-.57,1.05l-4.61,8.34Zm4.09-10.12a3.38,3.38,0,0,0,1.3-.25,2.4,2.4,0,0,0,1-.76,4.76,4.76,0,0,0,.29-.69,2.71,2.71,0,0,0,.12-.82,2.63,2.63,0,0,0-.17-.88,2.67,2.67,0,0,0-.5-.84,2.54,2.54,0,0,0-.87-.62,3.13,3.13,0,0,0-2.25-.06,3.27,3.27,0,0,0-.9.49,2.63,2.63,0,0,0-.64.8,2.35,2.35,0,0,0-.24,1.08,2.24,2.24,0,0,0,.23,1,2.4,2.4,0,0,0,.61.8,3.06,3.06,0,0,0,.92.52A3.36,3.36,0,0,0,265.06,1408.14Z"/><path d="M275.14,1418.26l3.78-6.64a3.34,3.34,0,0,1-.64,0,5.58,5.58,0,0,1-.59-.1,6,6,0,0,1-1.95-.72,6.21,6.21,0,0,1-1.59-1.29,5.88,5.88,0,0,1-1.07-1.74,5.76,5.76,0,0,1-.38-2.07,6,6,0,0,1,.51-2.48,6.25,6.25,0,0,1,1.39-2,6.13,6.13,0,0,1,2-1.3,6.65,6.65,0,0,1,2.52-.48,6.72,6.72,0,0,1,4.52,1.77,6,6,0,0,1,1.39,2,5.72,5.72,0,0,1,.51,2.41,5.62,5.62,0,0,1-.12,1.18,8.58,8.58,0,0,1-.34,1.09c-.14.36-.31.7-.48,1s-.37.7-.57,1.05l-4.61,8.34Zm4.08-10.12a3.38,3.38,0,0,0,1.3-.25,2.4,2.4,0,0,0,1-.76,4.76,4.76,0,0,0,.29-.69,2.71,2.71,0,0,0,.12-.82,2.63,2.63,0,0,0-.17-.88,2.67,2.67,0,0,0-.5-.84,2.54,2.54,0,0,0-.87-.62,3.13,3.13,0,0,0-2.25-.06,3.27,3.27,0,0,0-.9.49,2.63,2.63,0,0,0-.64.8,2.35,2.35,0,0,0-.24,1.08,2.24,2.24,0,0,0,.23,1,2.4,2.4,0,0,0,.61.8,3.06,3.06,0,0,0,.92.52A3.4,3.4,0,0,0,279.22,1408.14Z"/><path d="M296.78,1399.56l-3.8,6.66a4.53,4.53,0,0,1,.64,0c.21,0,.41,0,.62.09a6.08,6.08,0,0,1,2,.72,6.38,6.38,0,0,1,1.58,1.29,6.11,6.11,0,0,1,1.06,1.75,5.46,5.46,0,0,1,.38,2.06,6,6,0,0,1-1.91,4.47,6.58,6.58,0,0,1-2.06,1.31,6.66,6.66,0,0,1-2.5.47,6.49,6.49,0,0,1-4.5-1.77,5.89,5.89,0,0,1-1.39-1.94,5.72,5.72,0,0,1-.51-2.41,5.55,5.55,0,0,1,.12-1.18,10.51,10.51,0,0,1,.33-1.09,8.33,8.33,0,0,1,.49-1l.56-1,4.62-8.35Zm-4.07,10.14a3.18,3.18,0,0,0-1.36.28,2.69,2.69,0,0,0-1,.79,4.32,4.32,0,0,0-.26.66,2.79,2.79,0,0,0-.11.79,2.54,2.54,0,0,0,.17.88,2.49,2.49,0,0,0,1.39,1.44,3,3,0,0,0,1.25.24,3.12,3.12,0,0,0,1-.17,3,3,0,0,0,.9-.49,2.54,2.54,0,0,0,.64-.8,2.2,2.2,0,0,0,.25-1.07,2.33,2.33,0,0,0-.85-1.84,3.12,3.12,0,0,0-2-.71Z"/><circle cx="273.68" cy="2941.36" r="6.3"/><circle cx="273.68" cy="2237.17" r="2.1"/><line x1="273.68" y1="2237.17" x2="273.68" y2="2941.36" style="fill:none;stroke:#000;stroke-miterlimit:2.7999658584594727;stroke-width:1.3999829292297363px"/><path d="M248.61,2203.76h2V2194l-2.87,1.7v-4.28l5.14-3,1.79,0v15.31h2v3.38h-8v-3.38Z"/><path d="M261,2207.15l3.78-6.64a3.27,3.27,0,0,1-.63,0,5.21,5.21,0,0,1-.59-.09,6.28,6.28,0,0,1-1.95-.73,6,6,0,0,1-1.59-1.29,5.88,5.88,0,0,1-1.07-1.74,5.51,5.51,0,0,1-.38-2.07,6.09,6.09,0,0,1,1.9-4.46,6.15,6.15,0,0,1,2.05-1.31,6.65,6.65,0,0,1,2.52-.48,6.47,6.47,0,0,1,2.47.48,6.78,6.78,0,0,1,2,1.29,6,6,0,0,1,1.39,1.95,5.72,5.72,0,0,1,.51,2.41,5.55,5.55,0,0,1-.12,1.18,8.58,8.58,0,0,1-.34,1.09c-.14.36-.31.7-.48,1s-.37.7-.57,1l-4.61,8.34Zm4.09-10.12a3.38,3.38,0,0,0,1.3-.25,2.4,2.4,0,0,0,1-.76,4.76,4.76,0,0,0,.29-.69,2.71,2.71,0,0,0,.12-.82,2.63,2.63,0,0,0-.17-.88,2.79,2.79,0,0,0-.5-.84,2.54,2.54,0,0,0-.87-.62,3.13,3.13,0,0,0-2.25-.06,3.27,3.27,0,0,0-.9.49,2.63,2.63,0,0,0-.64.8,2.35,2.35,0,0,0-.24,1.08,2.18,2.18,0,0,0,.23,1,2.4,2.4,0,0,0,.61.8,3.06,3.06,0,0,0,.92.52A3.36,3.36,0,0,0,265.06,2197Z"/><path d="M275.14,2207.15l3.78-6.64a3.34,3.34,0,0,1-.64,0,5.58,5.58,0,0,1-.59-.09,6.28,6.28,0,0,1-1.95-.73,6.21,6.21,0,0,1-1.59-1.29,5.88,5.88,0,0,1-1.07-1.74,5.72,5.72,0,0,1-.38-2.07,6,6,0,0,1,.51-2.48,6.26,6.26,0,0,1,3.44-3.29,6.65,6.65,0,0,1,2.52-.48,6.47,6.47,0,0,1,2.47.48,6.66,6.66,0,0,1,2.05,1.29,6,6,0,0,1,1.39,1.95,5.72,5.72,0,0,1,.51,2.41,5.55,5.55,0,0,1-.12,1.18,8.58,8.58,0,0,1-.34,1.09c-.14.36-.31.7-.48,1s-.37.7-.57,1l-4.61,8.34Zm4.08-10.12a3.38,3.38,0,0,0,1.3-.25,2.4,2.4,0,0,0,1-.76,4.76,4.76,0,0,0,.29-.69,2.71,2.71,0,0,0,.12-.82,2.63,2.63,0,0,0-.17-.88,2.79,2.79,0,0,0-.5-.84,2.54,2.54,0,0,0-.87-.62,3.13,3.13,0,0,0-2.25-.06,3.27,3.27,0,0,0-.9.49,2.63,2.63,0,0,0-.64.8,2.35,2.35,0,0,0-.24,1.08,2.18,2.18,0,0,0,.23,1,2.4,2.4,0,0,0,.61.8,3.06,3.06,0,0,0,.92.52A3.4,3.4,0,0,0,279.22,2197Z"/><path d="M296.78,2188.45l-3.8,6.66a4.53,4.53,0,0,1,.64,0c.21,0,.41.05.62.09a6.08,6.08,0,0,1,2,.72,6.38,6.38,0,0,1,1.58,1.29,6.11,6.11,0,0,1,1.06,1.75,5.46,5.46,0,0,1,.38,2.06,6,6,0,0,1-1.91,4.47,6.58,6.58,0,0,1-2.06,1.31,6.66,6.66,0,0,1-2.5.47,6.49,6.49,0,0,1-4.5-1.77,5.89,5.89,0,0,1-1.39-1.94,5.72,5.72,0,0,1-.51-2.41,5.62,5.62,0,0,1,.12-1.18,10.51,10.51,0,0,1,.33-1.09,8.33,8.33,0,0,1,.49-1l.56-1,4.62-8.35Zm-4.07,10.14a3.18,3.18,0,0,0-1.36.28,2.69,2.69,0,0,0-1,.79,4.32,4.32,0,0,0-.26.66,2.79,2.79,0,0,0-.11.79,2.54,2.54,0,0,0,.17.88,2.49,2.49,0,0,0,.51.83,2.61,2.61,0,0,0,.88.61,3,3,0,0,0,1.25.24,3.12,3.12,0,0,0,1-.17,3,3,0,0,0,.9-.49,2.62,2.62,0,0,0,.64-.79,2.39,2.39,0,0,0-.6-2.92,3.12,3.12,0,0,0-2-.71Z"/><circle cx="273.68" cy="3730.25" r="6.3"/><circle cx="273.68" cy="3026.06" r="2.1"/><line x1="273.68" y1="3026.06" x2="273.68" y2="3730.25" style="fill:none;stroke:#000;stroke-miterlimit:2.7999658584594727;stroke-width:1.3999829292297363px"/><path d="M248.44,2992.65h2v-9.73l-2.87,1.7v-4.28l5.14-3,1.79,0v15.31h2V2996h-8v-3.38Z"/><path d="M260.81,2996l3.78-6.64a3.27,3.27,0,0,1-.63,0,5.21,5.21,0,0,1-.59-.09,6.28,6.28,0,0,1-1.95-.73,6,6,0,0,1-1.59-1.29,5.88,5.88,0,0,1-1.07-1.74,5.51,5.51,0,0,1-.38-2.07,6,6,0,0,1,.51-2.48,6.17,6.17,0,0,1,3.44-3.29,6.65,6.65,0,0,1,2.52-.48,6.47,6.47,0,0,1,2.47.48,6.6,6.6,0,0,1,2.05,1.29,6,6,0,0,1,1.39,1.95,5.72,5.72,0,0,1,.51,2.41,5.62,5.62,0,0,1-.12,1.18,8.58,8.58,0,0,1-.34,1.09c-.14.36-.31.7-.48,1s-.37.7-.57,1l-4.61,8.34Zm4.08-10.12a3.47,3.47,0,0,0,1.31-.25,2.44,2.44,0,0,0,1-.76,3.86,3.86,0,0,0,.29-.69,2.71,2.71,0,0,0,.12-.82,2.63,2.63,0,0,0-.17-.88,2.79,2.79,0,0,0-.5-.84,2.5,2.5,0,0,0-.86-.62,3.16,3.16,0,0,0-2.26-.06,3.08,3.08,0,0,0-.89.49,2.52,2.52,0,0,0-.65.8,2.35,2.35,0,0,0-.24,1.08,2.18,2.18,0,0,0,.23,1,2.54,2.54,0,0,0,.61.8,3.06,3.06,0,0,0,.92.52A3.16,3.16,0,0,0,264.89,2985.92Z"/><path d="M275,2996l3.78-6.64a3.27,3.27,0,0,1-.63,0,5.21,5.21,0,0,1-.59-.09,6.28,6.28,0,0,1-1.95-.73,6,6,0,0,1-1.59-1.29,5.88,5.88,0,0,1-1.07-1.74,5.51,5.51,0,0,1-.38-2.07,6,6,0,0,1,.51-2.48,6.17,6.17,0,0,1,3.44-3.29,6.65,6.65,0,0,1,2.52-.48,6.47,6.47,0,0,1,2.47.48,6.6,6.6,0,0,1,2,1.29,6,6,0,0,1,1.39,1.95,5.72,5.72,0,0,1,.51,2.41,5.62,5.62,0,0,1-.12,1.18,8.58,8.58,0,0,1-.34,1.09c-.14.36-.31.7-.48,1s-.37.7-.57,1l-4.61,8.34Zm4.08-10.12a3.47,3.47,0,0,0,1.31-.25,2.44,2.44,0,0,0,1-.76,3.86,3.86,0,0,0,.29-.69,2.71,2.71,0,0,0,.12-.82,2.63,2.63,0,0,0-.17-.88,2.79,2.79,0,0,0-.5-.84,2.5,2.5,0,0,0-.86-.62A3.16,3.16,0,0,0,278,2981a3.08,3.08,0,0,0-.89.49,2.52,2.52,0,0,0-.65.8,2.35,2.35,0,0,0-.24,1.08,2.18,2.18,0,0,0,.23,1,2.54,2.54,0,0,0,.61.8,3.06,3.06,0,0,0,.92.52A3.16,3.16,0,0,0,279.05,2985.92Z"/><path d="M288.2,2992.65h1.3l1.29-3,1.33-3c.44-1,.86-1.93,1.29-2.86s.83-1.82,1.21-2.67h-5.21v2.12h-3.52v-6h13.63v2.78c-1,2-1.95,4-3,6.15s-2,4.22-2.92,6.35h1.22V2996H288.2v-3.36Z"/><circle cx="273.68" cy="4519.14" r="6.3"/><circle cx="273.68" cy="3814.95" r="2.1"/><line x1="273.68" y1="3814.95" x2="273.68" y2="4519.14" style="fill:none;stroke:#000;stroke-miterlimit:2.7999658584594727;stroke-width:1.3999829292297363px"/><path d="M246.88,3781.71l6.45-6.85a7.43,7.43,0,0,0,1.3-1.63,3.36,3.36,0,0,0,.45-1.65,1.73,1.73,0,0,0-.15-.7,1.66,1.66,0,0,0-.42-.63,2.3,2.3,0,0,0-.68-.45,2.38,2.38,0,0,0-.91-.16,2.66,2.66,0,0,0-1,.19,2,2,0,0,0-.74.52,2.36,2.36,0,0,0-.47.78,3.19,3.19,0,0,0-.17.93h-3.7a6.64,6.64,0,0,1,.48-2.59,5.44,5.44,0,0,1,1.32-1.91,5.66,5.66,0,0,1,2-1.19A6.87,6.87,0,0,1,253,3766a7.35,7.35,0,0,1,2.31.37,5.92,5.92,0,0,1,1.95,1.09,5.05,5.05,0,0,1,1.34,1.75,5.59,5.59,0,0,1,.49,2.42,4.53,4.53,0,0,1-.45,2,7.69,7.69,0,0,1-1.21,1.78l-5.31,5.75h6.95v3.78H246.89v-3.21Z"/><path d="M268.08,3785.08a7.15,7.15,0,0,1-3.35-.73,6.16,6.16,0,0,1-2.24-2,8.91,8.91,0,0,1-1.27-3,16.26,16.26,0,0,1-.4-3.72,17.6,17.6,0,0,1,.38-3.71,9,9,0,0,1,1.24-3,6.16,6.16,0,0,1,2.26-2.07,7,7,0,0,1,3.41-.77,7.15,7.15,0,0,1,3.38.75,6.33,6.33,0,0,1,2.25,2.05,8.81,8.81,0,0,1,1.24,3,17.37,17.37,0,0,1,.39,3.68,17.06,17.06,0,0,1-.4,3.73,9,9,0,0,1-1.27,3,6.25,6.25,0,0,1-2.26,2A6.87,6.87,0,0,1,268.08,3785.08Zm0-3.77a3.07,3.07,0,0,0,1.74-.44,2.75,2.75,0,0,0,1-1.2,5.85,5.85,0,0,0,.44-1.83c.06-.71.1-1.47.1-2.3s0-1.57-.1-2.27a6.06,6.06,0,0,0-.44-1.84,2.76,2.76,0,0,0-1-1.22,3.66,3.66,0,0,0-3.48,0,2.8,2.8,0,0,0-1,1.22,6.37,6.37,0,0,0-.44,1.84,22.72,22.72,0,0,0-.11,2.27c0,.82,0,1.59.11,2.3a5.85,5.85,0,0,0,.44,1.83,2.71,2.71,0,0,0,1,1.2A3.09,3.09,0,0,0,268.08,3781.31Z"/><path d="M284,3785.08a7.11,7.11,0,0,1-3.34-.73,6.11,6.11,0,0,1-2.25-2,8.91,8.91,0,0,1-1.27-3,16.84,16.84,0,0,1-.4-3.72,17.6,17.6,0,0,1,.38-3.71,8.79,8.79,0,0,1,1.25-3,6.05,6.05,0,0,1,2.25-2.07,7,7,0,0,1,3.41-.77,7.12,7.12,0,0,1,3.38.75,6.33,6.33,0,0,1,2.25,2.05,8.81,8.81,0,0,1,1.24,3,16.74,16.74,0,0,1,.39,3.68,16.47,16.47,0,0,1-.4,3.73,9,9,0,0,1-1.27,3,6.25,6.25,0,0,1-2.26,2A6.89,6.89,0,0,1,284,3785.08Zm0-3.77a3.07,3.07,0,0,0,1.74-.44,2.75,2.75,0,0,0,1-1.2,5.59,5.59,0,0,0,.44-1.83c.06-.71.1-1.47.1-2.3s0-1.57-.1-2.27a6.07,6.07,0,0,0-.43-1.84,2.85,2.85,0,0,0-1-1.22,3.66,3.66,0,0,0-3.48,0,2.78,2.78,0,0,0-1,1.22,6.05,6.05,0,0,0-.45,1.84,22.72,22.72,0,0,0-.11,2.27c0,.82,0,1.59.11,2.3a5.85,5.85,0,0,0,.44,1.83,2.66,2.66,0,0,0,1,1.2A3,3,0,0,0,284,3781.31Z"/><path d="M293.12,3781.54h2v-9.73l-2.87,1.7v-4.28l5.14-3,1.79,0v15.31h2v3.38h-8v-3.38Z"/><circle cx="273.68" cy="5308.04" r="6.3"/><circle cx="273.68" cy="4603.84" r="2.1"/><line x1="273.68" y1="4603.84" x2="273.68" y2="5308.04" style="fill:none;stroke:#000;stroke-miterlimit:2.7999658584594727;stroke-width:1.3999829292297363px"/><path d="M244.32,4570.6l6.45-6.85a7.08,7.08,0,0,0,1.29-1.63,3.24,3.24,0,0,0,.46-1.65,1.73,1.73,0,0,0-.15-.7,1.81,1.81,0,0,0-.43-.63,2.13,2.13,0,0,0-.67-.45,2.38,2.38,0,0,0-.91-.16,2.62,2.62,0,0,0-1.05.19,2.1,2.1,0,0,0-.75.52,2.51,2.51,0,0,0-.46.78,3.2,3.2,0,0,0-.17.94h-3.71a6.4,6.4,0,0,1,.49-2.59,5.48,5.48,0,0,1,1.32-1.92,5.71,5.71,0,0,1,2-1.19,6.93,6.93,0,0,1,2.43-.41,7.35,7.35,0,0,1,2.31.37,5.92,5.92,0,0,1,1.95,1.09,5.05,5.05,0,0,1,1.34,1.75,5.74,5.74,0,0,1,.49,2.42,4.53,4.53,0,0,1-.45,2,7.69,7.69,0,0,1-1.21,1.78l-5.32,5.75h7v3.78H244.33v-3.21Z"/><path d="M265.52,4574a7.13,7.13,0,0,1-3.34-.73,6.11,6.11,0,0,1-2.25-2,8.94,8.94,0,0,1-1.27-3,17,17,0,0,1-.39-3.73,17.61,17.61,0,0,1,.37-3.71,9.19,9.19,0,0,1,1.25-3.05,6.05,6.05,0,0,1,2.25-2.07,7,7,0,0,1,3.41-.77,7.12,7.12,0,0,1,3.38.75,6.17,6.17,0,0,1,2.25,2.05,9,9,0,0,1,1.25,3,17.38,17.38,0,0,1,.38,3.68,16.41,16.41,0,0,1-.4,3.73,8.81,8.81,0,0,1-1.26,3,6.28,6.28,0,0,1-2.27,2A6.89,6.89,0,0,1,265.52,4574Zm0-3.77a3.13,3.13,0,0,0,1.75-.44,2.8,2.8,0,0,0,1-1.2,5.59,5.59,0,0,0,.44-1.83c.07-.71.1-1.47.1-2.3s0-1.57-.1-2.27a5.93,5.93,0,0,0-.43-1.83,2.76,2.76,0,0,0-1-1.23,3.06,3.06,0,0,0-1.73-.44,3.13,3.13,0,0,0-1.75.44,2.76,2.76,0,0,0-1,1.23,5.92,5.92,0,0,0-.45,1.83c-.07.7-.1,1.46-.1,2.27s0,1.59.1,2.3a6.14,6.14,0,0,0,.44,1.83,2.73,2.73,0,0,0,1,1.2A3,3,0,0,0,265.52,4570.2Z"/><path d="M281.47,4574a7.15,7.15,0,0,1-3.35-.73,6.16,6.16,0,0,1-2.24-2,8.94,8.94,0,0,1-1.27-3,16.41,16.41,0,0,1-.4-3.73,17.6,17.6,0,0,1,.38-3.71,9,9,0,0,1,1.24-3.05,6.16,6.16,0,0,1,2.26-2.07,7,7,0,0,1,3.41-.77,7.15,7.15,0,0,1,3.38.75,6.33,6.33,0,0,1,2.25,2.05,8.81,8.81,0,0,1,1.24,3,17.37,17.37,0,0,1,.39,3.68,17,17,0,0,1-.4,3.73,9,9,0,0,1-1.27,3,6.25,6.25,0,0,1-2.26,2A6.89,6.89,0,0,1,281.47,4574Zm0-3.77a3.07,3.07,0,0,0,1.74-.44,2.75,2.75,0,0,0,1-1.2,5.85,5.85,0,0,0,.44-1.83c.06-.71.1-1.47.1-2.3s0-1.57-.1-2.27a5.92,5.92,0,0,0-.44-1.83,2.74,2.74,0,0,0-1-1.23,3.66,3.66,0,0,0-3.48,0,2.78,2.78,0,0,0-1,1.23,6.22,6.22,0,0,0-.44,1.83c-.07.7-.11,1.46-.11,2.27s0,1.59.11,2.3a5.85,5.85,0,0,0,.44,1.83,2.71,2.71,0,0,0,1,1.2A3.09,3.09,0,0,0,281.47,4570.2Z"/><path d="M289.27,4565.55l6.63-10.4H300l-6.54,10.43h3.94V4562l3.85,0v3.65h2.6v3.12h-2.6v1.73h2.37v3.37h-8v-3.37h1.77v-1.73h-8.15v-3.15Z"/><circle cx="273.68" cy="6096.93" r="6.3"/><circle cx="273.68" cy="5392.73" r="2.1"/><line x1="273.68" y1="5392.73" x2="273.68" y2="6096.93" style="fill:none;stroke:#000;stroke-miterlimit:2.7999658584594727;stroke-width:1.3999829292297363px"/><path d="M244.57,5359.49l6.45-6.85a7.43,7.43,0,0,0,1.3-1.63,3.36,3.36,0,0,0,.45-1.65,1.73,1.73,0,0,0-.15-.7,1.66,1.66,0,0,0-.42-.63,2.3,2.3,0,0,0-.68-.45,2.38,2.38,0,0,0-.91-.16,2.85,2.85,0,0,0-1.05.18,2.13,2.13,0,0,0-.74.53,2.36,2.36,0,0,0-.47.78,3.19,3.19,0,0,0-.17.93h-3.7a6.64,6.64,0,0,1,.48-2.59,5.44,5.44,0,0,1,1.32-1.91,5.66,5.66,0,0,1,2-1.19,6.87,6.87,0,0,1,2.42-.41,7.35,7.35,0,0,1,2.31.37,5.92,5.92,0,0,1,1.95,1.09,5.05,5.05,0,0,1,1.34,1.75,5.59,5.59,0,0,1,.49,2.42,4.53,4.53,0,0,1-.45,2,7.69,7.69,0,0,1-1.21,1.78l-5.31,5.75h6.95v3.78H244.58v-3.21Z"/><path d="M265.78,5362.86a7.15,7.15,0,0,1-3.35-.73,6.11,6.11,0,0,1-2.25-2,8.73,8.73,0,0,1-1.26-3,16.41,16.41,0,0,1-.4-3.73,17,17,0,0,1,.38-3.71,9,9,0,0,1,1.24-3,6.08,6.08,0,0,1,2.26-2.07,7,7,0,0,1,3.4-.77,7.19,7.19,0,0,1,3.39.75,6.22,6.22,0,0,1,2.24,2.05,8.63,8.63,0,0,1,1.25,3,17.38,17.38,0,0,1,.38,3.68,16.41,16.41,0,0,1-.4,3.73,8.81,8.81,0,0,1-1.26,3,6.25,6.25,0,0,1-2.26,2A6.89,6.89,0,0,1,265.78,5362.86Zm0-3.77a3.09,3.09,0,0,0,1.74-.44,2.8,2.8,0,0,0,1-1.2,5.59,5.59,0,0,0,.44-1.83c.07-.71.1-1.47.1-2.3s0-1.57-.1-2.27a5.93,5.93,0,0,0-.43-1.83,2.69,2.69,0,0,0-1-1.23,3,3,0,0,0-1.73-.44,3.15,3.15,0,0,0-1.75.44,2.76,2.76,0,0,0-1,1.23,6.21,6.21,0,0,0-.45,1.83c-.07.7-.1,1.46-.1,2.27s0,1.59.1,2.3a6.14,6.14,0,0,0,.44,1.83,2.8,2.8,0,0,0,1,1.2A3,3,0,0,0,265.78,5359.09Z"/><path d="M281.72,5362.86a7.11,7.11,0,0,1-3.34-.73,6.11,6.11,0,0,1-2.25-2,8.94,8.94,0,0,1-1.27-3,17,17,0,0,1-.4-3.73,17.6,17.6,0,0,1,.38-3.71,8.79,8.79,0,0,1,1.25-3,6.05,6.05,0,0,1,2.25-2.07,7,7,0,0,1,3.41-.77,7.12,7.12,0,0,1,3.38.75,6.33,6.33,0,0,1,2.25,2.05,8.81,8.81,0,0,1,1.24,3,16.74,16.74,0,0,1,.39,3.68,16.41,16.41,0,0,1-.4,3.73,9,9,0,0,1-1.27,3,6.25,6.25,0,0,1-2.26,2A6.89,6.89,0,0,1,281.72,5362.86Zm0-3.77a3.07,3.07,0,0,0,1.74-.44,2.75,2.75,0,0,0,1-1.2,5.59,5.59,0,0,0,.44-1.83c.06-.71.1-1.47.1-2.3s0-1.57-.1-2.27a5.93,5.93,0,0,0-.43-1.83,2.82,2.82,0,0,0-1-1.23,3.66,3.66,0,0,0-3.48,0,2.76,2.76,0,0,0-1,1.23,5.92,5.92,0,0,0-.45,1.83c-.07.7-.11,1.46-.11,2.27s0,1.59.11,2.3a5.85,5.85,0,0,0,.44,1.83,2.66,2.66,0,0,0,1,1.2A3,3,0,0,0,281.72,5359.09Z"/><path d="M292.21,5359.32h1.31c.42-1,.84-2,1.29-3s.88-2,1.32-3,.87-1.93,1.3-2.86.83-1.82,1.21-2.66h-5.21V5350H289.9v-6h13.64v2.78c-1,2-2,4-3,6.15s-2,4.22-2.92,6.35h1.22v3.38h-6.66v-3.36Z"/><circle cx="273.68" cy="6885.82" r="6.3"/><circle cx="273.68" cy="6181.62" r="2.1"/><line x1="273.68" y1="6181.62" x2="273.68" y2="6885.82" style="fill:none;stroke:#000;stroke-miterlimit:2.7999658584594727;stroke-width:1.3999829292297363px"/><path d="M249.84,6148.38l6.44-6.85a7.43,7.43,0,0,0,1.3-1.63,3.23,3.23,0,0,0,.45-1.65,1.72,1.72,0,0,0-.14-.7,1.81,1.81,0,0,0-.43-.63,2.18,2.18,0,0,0-.68-.45,2.33,2.33,0,0,0-.9-.16,2.78,2.78,0,0,0-1,.18,2.17,2.17,0,0,0-1.21,1.31,3.2,3.2,0,0,0-.18.94h-3.7a6.57,6.57,0,0,1,.48-2.59,5.51,5.51,0,0,1,1.33-1.92,5.62,5.62,0,0,1,2-1.19,6.91,6.91,0,0,1,2.42-.41,7.46,7.46,0,0,1,2.32.37,5.87,5.87,0,0,1,1.94,1.09,5.05,5.05,0,0,1,1.34,1.75,5.59,5.59,0,0,1,.49,2.42,4.53,4.53,0,0,1-.45,2,7.69,7.69,0,0,1-1.21,1.78l-5.31,5.75H262v3.78H249.84v-3.21Z"/><path d="M271,6151.75a7.15,7.15,0,0,1-3.35-.73,6.16,6.16,0,0,1-2.24-2,8.94,8.94,0,0,1-1.27-3,16.41,16.41,0,0,1-.4-3.73,17.6,17.6,0,0,1,.38-3.71,8.79,8.79,0,0,1,1.25-3.05,6.05,6.05,0,0,1,2.25-2.07,7,7,0,0,1,3.41-.77,7.15,7.15,0,0,1,3.38.75,6.33,6.33,0,0,1,2.25,2.05,8.81,8.81,0,0,1,1.24,3,17.37,17.37,0,0,1,.39,3.68,17,17,0,0,1-.4,3.73,9,9,0,0,1-1.27,3,6.25,6.25,0,0,1-2.26,2A6.87,6.87,0,0,1,271,6151.75Zm0-3.77a3.07,3.07,0,0,0,1.74-.44,2.75,2.75,0,0,0,1-1.2,5.85,5.85,0,0,0,.44-1.83c.06-.71.1-1.47.1-2.3s0-1.57-.1-2.27a5.92,5.92,0,0,0-.44-1.83,2.74,2.74,0,0,0-1-1.23,3.66,3.66,0,0,0-3.48,0,2.78,2.78,0,0,0-1,1.23,6.22,6.22,0,0,0-.44,1.83c-.07.7-.11,1.46-.11,2.27s0,1.59.11,2.3a5.85,5.85,0,0,0,.44,1.83,2.71,2.71,0,0,0,1,1.2A3.09,3.09,0,0,0,271,6148Z"/><path d="M280.13,6148.21h2v-9.73l-2.87,1.7v-4.28l5.14-3,1.79,0v15.31h2v3.38h-8v-3.38Z"/><path d="M290.16,6148.21h2v-9.73l-2.87,1.7v-4.28l5.14-3,1.79,0v15.31h2v3.38h-8v-3.38Z"/><circle cx="273.68" cy="7674.71" r="6.3"/><circle cx="273.68" cy="6970.52" r="2.1"/><line x1="273.68" y1="6970.52" x2="273.68" y2="7674.71" style="fill:none;stroke:#000;stroke-miterlimit:2.7999658584594727;stroke-width:1.3999829292297363px"/><path d="M247.53,6937.27l6.45-6.85a7.63,7.63,0,0,0,1.3-1.62,3.4,3.4,0,0,0,.45-1.66,2,2,0,0,0-.57-1.33,2.3,2.3,0,0,0-.68-.45,2.36,2.36,0,0,0-.9-.16,2.59,2.59,0,0,0-1.05.19,1.94,1.94,0,0,0-.75.52,2.36,2.36,0,0,0-.47.78,3.2,3.2,0,0,0-.17.94h-3.7a6.57,6.57,0,0,1,.48-2.59,5.48,5.48,0,0,1,1.32-1.92,5.66,5.66,0,0,1,2-1.19,6.87,6.87,0,0,1,2.42-.41,7.46,7.46,0,0,1,2.32.37,6,6,0,0,1,1.94,1.09,5.05,5.05,0,0,1,1.34,1.75,5.59,5.59,0,0,1,.49,2.42,4.53,4.53,0,0,1-.45,2,7.69,7.69,0,0,1-1.21,1.78l-5.31,5.75h6.95v3.78H247.54v-3.21Z"/><path d="M268.74,6940.64a7.15,7.15,0,0,1-3.35-.73,6.19,6.19,0,0,1-2.25-2,8.73,8.73,0,0,1-1.26-3,16.41,16.41,0,0,1-.4-3.73,17,17,0,0,1,.38-3.71,9.06,9.06,0,0,1,1.24-3.05,6.24,6.24,0,0,1,2.26-2.07,7,7,0,0,1,3.41-.76,7.15,7.15,0,0,1,3.38.74,6.22,6.22,0,0,1,2.24,2.05,8.63,8.63,0,0,1,1.25,3,17.38,17.38,0,0,1,.38,3.68,16.41,16.41,0,0,1-.4,3.73,8.81,8.81,0,0,1-1.26,3,6.25,6.25,0,0,1-2.26,2A6.89,6.89,0,0,1,268.74,6940.64Zm0-3.77a3.07,3.07,0,0,0,1.74-.44,2.74,2.74,0,0,0,1-1.2,5.58,5.58,0,0,0,.45-1.83c.06-.71.09-1.47.09-2.3s0-1.57-.09-2.27a5.92,5.92,0,0,0-.44-1.83,2.69,2.69,0,0,0-1-1.23,3,3,0,0,0-1.72-.44,3.1,3.1,0,0,0-1.75.44,2.78,2.78,0,0,0-1,1.23,6.21,6.21,0,0,0-.45,1.83c-.07.7-.1,1.46-.1,2.27s0,1.59.1,2.3a6.14,6.14,0,0,0,.44,1.83,2.74,2.74,0,0,0,1,1.2A3.07,3.07,0,0,0,268.74,6936.87Z"/><path d="M277.83,6937.1h1.95v-9.73l-2.87,1.71v-4.29l5.15-3,1.78,0v15.3h2v3.38h-8v-3.38Z"/><path d="M289.26,6937.1h1.3c.42-1,.85-2,1.3-3l1.32-3c.44-1,.87-1.94,1.3-2.87s.82-1.82,1.21-2.66h-5.21v2.11H287v-6h13.64v2.78c-1,2-2,4-3,6.15s-2,4.23-2.92,6.35h1.21v3.38h-6.65v-3.36Z"/></g></g></g></svg>