<svg xmlns="http://www.w3.org/2000/svg" viewBox="0 0 438.36 7846.94"><defs><linearGradient id="a" x1="-6.17" y1="-4564.63" x2="-6.17" y2="-141.25" gradientTransform="matrix(.5 0 0 -.5 381.85 5557.48)" gradientUnits="userSpaceOnUse"><stop offset="0" stop-color="#a366ff"/><stop offset="1" stop-color="#60f"/></linearGradient><linearGradient id="b" x1="-449.83" y1="-4564.64" x2="-449.83" y2="7253.05" gradientTransform="matrix(.5 0 0 -.5 381.85 5557.48)" gradientUnits="userSpaceOnUse"><stop offset="0" stop-color="#ff5d7d"/><stop offset=".5" stop-color="#f03"/><stop offset="1" stop-color="red"/></linearGradient><linearGradient id="c" x1="-97.94" y1="-4564.66" x2="-97.94" y2="3048.68" gradientTransform="matrix(.5 0 0 -.5 381.85 5557.48)" gradientUnits="userSpaceOnUse"><stop offset="0" stop-color="#e16aff"/><stop offset=".5" stop-color="#c0f"/><stop offset="1" stop-color="#f0f"/></linearGradient><linearGradient id="d" x1="-399.34" y1="-4564.67" x2="-399.34" y2="9235.58" gradientTransform="matrix(.5 0 0 -.5 381.85 5557.48)" gradientUnits="userSpaceOnUse"><stop offset="0" stop-color="#ffff90"/><stop offset=".5" stop-color="#ff6"/><stop offset="1" stop-color="#ff0"/></linearGradient><linearGradient id="e" x1="-301.12" y1="-4564.62" x2="-301.12" y2="4504.82" gradientTransform="matrix(.5 0 0 -.5 381.85 5557.48)" gradientUnits="userSpaceOnUse"><stop offset="0" stop-color="#c3ff87"/><stop offset=".5" stop-color="#9f3"/><stop offset="1" stop-color="#0f0"/></linearGradient><linearGradient id="f" x1="-288.43" y1="-4564.64" x2="-288.43" y2="-1901.43" gradientTransform="matrix(.5 0 0 -.5 381.85 5557.48)" gradientUnits="userSpaceOnUse"><stop offset="0" stop-color="#93ffe4"/><stop offset="1" stop-color="#3fc"/></linearGradient><linearGradient id="g" x1="-404" y1="2582.58" x2="-117.91" y2="2582.58" gradientTransform="matrix(.5 0 0 -.5 381.85 5557.48)" gradientUnits="userSpaceOnUse"><stop offset="0" stop-color="#6aedff"/><stop offset=".5" stop-color="#00e0ff"/><stop offset="1" stop-color="#0ff"/></linearGradient><linearGradient id="h" x1="-248.27" y1="-4564.65" x2="-248.27" y2="10669.37" gradientTransform="matrix(.5 0 0 -.5 381.85 5557.48)" gradientUnits="userSpaceOnUse"><stop offset="0" stop-color="#5b93ff"/><stop offset=".5" stop-color="#5b93ff"/><stop offset="1" stop-color="#00f"/></linearGradient></defs><g data-name="Ebene 2"><g data-name="Ebene 1"><path d="M422.89 7499.8c2.52 52 2.52 104-12.66 155.95-10.46 35.82-2.66 123.26-.12 191.17h-91l13-2218.59h60.72l5.08 26c4.89 26 10.51 46.68 18 98.66 7.73 52-6.49 157-3.79 209 2.51 52 15.55 108 8 160s-12 78.25-12 130.24 15.18 104 10.11 156c-4.89 52 15.73 104 3.26 155.95-12.67 52-25.71 104-10.52 156s-.7 104 6.89 155.95-7.59 104-5.08 156c2.71 52 22.63 104 25.34 155.95 2.51 52-12.67 104-17.74 156-4.93 51.75-.19 103.73 2.51 155.72z" fill="url(#a)"/><path d="M301 5242.45c0 80.83-12.61 1555.24-12.61 1636.08 0 31.47-.14 460.76-.3 968.4H6.86c5.4-26.11 1.52-79.89 5.31-105.21 11.34-81.45 23.51-135.07 25.77-209.68 2.41-80.2-6.57-168.93-6.45-243.55-.13-79.58-.58-153.34 8.34-234.18 8.91-79 3.13-190.09-8.34-270.92C20 6705 43.82 6663.18 23.3 6582.35c-20.25-77.73-11.11-151.19-11-232-.13-77.1-18.83-153.79-9.91-234.62 8.92-76.48 19.18-160.12 32.65-240.94 13.71-75.86-8.46-150.78-3.8-225.39 4.68-81.46 37-153.95 30.32-228.57-6.92-80.83-13.72-169.37-18.4-244C38.51 5096.62 67 5022 66.89 4947.41c.13-79.59-28.38-162.3-21.46-243.13 6.67-79 29.61-155.44 40.78-236.27 11.34-78.34 0-155.28-2.27-236.11-2.42-77.72 4.69-155.61 6.81-236.43 2.13-77.1 11.47-155.45 6.8-236.28-4.67-76.48-22.51-155.44-40.78-236.27-18.26-75.86 18.6-155.44 16.18-230.06-2.25-81.45-27.24-161.66-18.19-236.27 9.22-80.21 38.13-233.71 40.55-308.32 8.07-111.94-18.64-240.52 11.66-364.6 61.39-251.47 45.1-464 45.1-464l140.32 575c0 39.16-7.1 316.9-7.1 397.73 0 77.72 8.92 314.83 8.92 395.66V4624c0 75.85 18.27 148.23 18.27 222.84 0 81.4-11.48 321-11.48 395.61z" fill="url(#b)"/><path d="M373.5 6565.78c-4.6 42.7-2 84-2.05 129 .08 43 2.89 86.18-3 131.14-5.92 43.67 3.14 89.78-1.29 134.73-4.6 44 1.61 86.69 7.53 131.64 5.93 44.63 12.14 89.9 6 131.64-6 44.95-22.12 88.42-23.62 130.16-1.61 45.27 11.69 91.38 14.59 136.33 3 42.7-6 86.69-7.51 131.64-1.6 43 4.6 86.69 9 131.64 2.49 23.62-4.89 58.81 2.08 93.26H264.57l13-3782.77s57.5-84.59 57.5 6.33 34.15 325.66 34.07 367.4c.08 45.27-15.16 89.9-12.06 134.85 3.11 42.7 17.3 141.26 27.95 186.22 10.52 43-5.73 149.8-4.24 194.75 1.61 43.66 27.38 112.61 15.44 157.55-12 44-39.15 86.69-40.64 131.64-1.61 44.63 22.66 89.91 24.08 131.64 1.41 44.95-19.48 89.9-18.07 131.64 1.42 45.27 25.69 89.9 34.64 134.85 9.11 42.7 2.91 86.69-3 131.64-5.93 43-12.14 86.69-18.06 131.64-5.91 43.66-12.12 86.66-13.53 131.66-1.41 44 1.41 86.69 6 131.64 4.43 44.64-6.14 88.41 2.81 130.15 9.11 44.95 6 80.75 9.1 122.5 3.11 45.21-1.63 100.53-6.06 145.49z" fill="url(#c)"/><path d="M72.13 7846.93v-20.56c0-20.56 0-62.43-2.53-102-2.43-42.06-7.62-83-8.8-124.47a790.9 790.9 0 016.3-122.59c5-41.87 12.58-83 6.28-124.47-6.21-40.74 16.32-81.1 11.37-122.59-5-41.68-4.79-83 2.83-124.47 7.48-40.55 4.6-81.1.76-122.59s4.84-81.18 1.14-122.67c-3.85-40.55-20.63-81.72-18.2-123.21 2.53-41.31-8.17-84.16-4.39-125.65 3.78-40.36-18-81.1-11.75-122.59 6.21-41.11 16.34-83 8.72-122.58-7.48-42.06-19.4-83-19.33-124.47-.07-40.93 21.66-83 26.61-122.59 5-41.87-5-83-6.3-124.47-1.24-40.74 13.8-96.68 13.8-138.17 0-41.68 23.23-90.38 22-131.87-1.35-40.54-4.87-55.06-8.72-96.55s23.79-73.8 20.09-115.29c-3.85-40.55-17-154.5-9.48-196 7.63-41.3 15.23-100.46 21.6-142 6.37-40.36-10.06-206.95-8.71-227.69l56.09 152h40.17l-12.88 31.71c0 20.56 3.41 77.84 3.41 117.45 0 42.05-7.21 83.88-7.21 125.37 0 40.93 24.26 82.89 24.26 122.5 0 41.87-8.34 49.3-8.34 90.79 0 40.74 5.69 104 5.69 145.46v863.83c0 42.05-19.1 85.14-19.1 126.63V7834z" fill="#ff6b00"/><path d="M123.59 7846.93l-8.07-29.49c-8.23-29-24.14-89.42-30.32-146.49-6-58-2.16-118.91 12.13-176 14.13-58-2.92-114.15 7.2-176 10-57.55 6.18-114.15 8.07-176 1.89-57.07 10.23-114.15-4.06-176-14.13-56.6 6.71-150.9-11.49-212.73-18.19-56.13-5.15-114.15 2.92-171.22 8.23-60.88 8.23-82.16 10.39-139.23 2-60.4-10.13-118.91-10.13-176 0-59.93 12.13-118.91 10.13-176-2.17-59.45 5-116.74-1.14-173.81-6-59.45-2.16-118.91 8.07-176 10.23-59 19.59-121.55 19.7-178.62-.11-58.5-32.59-118.43-24.63-175.5 8-58 16.29-118.9 28.31-176 12.24-58 3.9-114.15-14.17-176-18.31-57.54-5.69-114.15-17.93-176-12-57.08-16.19-114.54-1.9-176.37 14.14-56.59 29.94-113.76 42.07-175.59 12.13-56.12 12.13-114.15-2-171.22-14.29-60.88-29.07-115.64-27.17-172.71 1.9-60.4 21.23-122.17 35.24-179.25 14-59.92 10.24-118.9-8.07-176-18.07-59.45 6.56-136.77-7.46-193.84-14-59.45-39.42-101.05-27.18-158.12 12-59 4.44-118.91 10.38-176 6.18-58.5 10.84-113.22.88-170.29-10.13-58-11-115.86-4.93-172.93 6.06-58 6.06-122.88 16.19-184.71 10-57.55 6.18-114.15 2-176-4.17-57.07 21.13-114.15 25-176 4-56.59 33.5-133.58 29.44-195.42-3.9-56.12-1.89-94.71-17.92-151.78C157 1993 144.85 1935 157 1877.94c12.13-60.4-39.29-159.9-19.08-217 20.35-59.92 28-121.62 28.08-178.69-.11-59.45-52.6-249.56-17.24-398.47 29.93-126.1 26.61-158.87 26.9-158.53 6.54 7.61 61 133.44 61 188.07 0 58 16.3 87.76 16.3 144.83 0 58 17 60.66 17 122.5 0 57.55 7.58 259.46 7.58 321.3 0 57.07 3 501.42 3 558.5 0 60.4-17.44 194.4-17.44 251.47 0 59.93-6.44 79.11-6.44 136.19 0 59.45-19.33 102.89-19.33 160 0 59.45-21.61 109.38-21.61 166.45 0 59 14.79-8.8 14.79 48.27 0 58.51 6.82 109.38 6.82 166.45 0 58 17.43 113.7 17.43 170.77 0 58 8.34 226.4 8.34 288.22 0 57.55 1.51 139.21 1.51 201 0 57.07-41.31 146.41-41.31 208.24 0 56.6 15.54 96 15.54 157.81 0 56.12-4.17 137.47-4.17 194.55 0 60.88-7.2 53.89-7.2 111 0 60.4-4.17 236.19-4.17 293.27v221.93c0 59.45-38.28 118.9-38.28 176v352c0 58.5 34.49 101 34.49 158 0 58-5.68 133.87-5.68 190.95 0 58-28.81 117.11-28.81 178.95v527.93c0 56.13-13 114.15-13 171.22v1055.82h-48.43z" fill="url(#d)"/><path d="M329.37 3754.26c-1.25 43.31-2.52 87.26-3.83 132.51-1.27 44-2.53 87.28-3.84 132.53-1.28 44.28-2.52 87.27-3.83 132.52-1.3 44.92-2.62 90.5-3.84 132.53-1.31 45.25-2.62 90.5-3.84 132.52-1.32 45.58-2.62 90.5-3.92 135.75-1.25 43-2.53 87.27-3.84 132.52-1.26 43.32-2.52 87.27-3.84 132.52-1.27 44-2.52 87.27-3.84 132.52-1.27 44.29-2.52 87.28-3.83 132.53-1.3 44.92-2.62 90.5-3.83 132.52-1.31 45.25-2.62 90.5-3.84 132.52l-3.93 135.75c-1.24 43 17.78 99.56 16.47 144.81-1.26 43.32 4 124.09 2.65 169.34-1.27 44 3.21 143.53 1.9 188.78-1.28 44.29-11.2 88.06-12.51 133.31-1.3 44.92-9 43.72-10.23 85.75-1.31 45.25-20.07 31.14-21.29 73.16l-3.93 135.76c-1.24 43 55.7 117.63 54.4 162.88-1.26 43.32-36.75 183.17-38.06 228.42-1.27 44 26.7 147.14 25.4 192.39-1.28 44.28-21.43 85.17-22.74 130.42-1.3 44.93-7.5 97-8.72 139.07-1.31 45.25 3.11 130.19 1.9 172.21-1.32 45.58-14.23 16.72-15.54 62-1.25 43 16.84 170.91 15.54 216.16-1 33.84 18.41 86.15 26.31 129h-145c1.4-95.64-14.85-287.53-13.56-328.58 1.21-45.59 15.61-120.86 12.75-166.54-2.92-43.43 7.79-111.68-5.17-158.43-12.86-44.79 4.13-183 3.43-228.43-.88-44.18-17.33-125 0-168.59 17.44-42.6 22.24-85.39 25.55-130.43 3.46-44.7-17-82.26-17.66-124.48-.58-45.45 28.73-87.78 28-130-.57-45.77-18.27-89.56-29-136.07-11-44.26-14.92-92.22-5.66-136.64 9.2-42.48 18.8-85.57 28-130 9.22-43.14 3.21-85.34 6.41-130.39 3.17-44.08 16.23-87.7 11.37-133.6-4.65-45.55-11.65-92-22.43-135.27-10.92-46.54-8.73-103.72-11.68-146.17-2.84-46-10-79.8-2.73-124.43a933 933 0 0013.9-131.48c1.14-43.32-1.38-87.67 7.88-132.1 9.22-43.12 30.91-84.29 38.16-128.92 7.46-43.64.37-87.5-6.27-133.59-6.64-45.76-13.65-92.2-4.23-133.37 9.37-44.41-7.48-100.23-4.25-142 3.47-45.35-3.22-83.63-5.81-129.29-2.81-43.42 10.58-86.43 13.9-131.48 3.41-43.08-3.64-87.91-8.27-133.78-4.9-44.61 5.42-89.88.56-135.78-4.66-44.9 28.74-159 26.15-204.63-2.75-45.36 11.75-242.11 5.31-294.71-5.86-47.85-29.57-179.42-29.57-179.42L302.63 3298c-.63 22 28.05 411 26.74 456.26z" fill="url(#e)"/><path d="M287.81 7846.93H188.4c-3.85-37.28-9.63-74.81-4.15-110.61 7.86-50.16 18.56-87.07 20.44-140.14 1.59-50.93-5.69-116.56-6.12-168.46-.31-51.15 10.87-109.56 6.51-160.84-4.36-51.63-24.17-98.68-30.47-152.37-6.5-51.9 15.59-99.62 31.31-149.57 52.59-161.38 54.21-342.48 49.71-393.39l45.3-60.39c-1.7 50.91-3.42 102.55-5.1 152.72-1.7 50.91-16.51 104-18.25 156.37-1.7 50.9-3.39 101.45-5.1 152.72-1.7 50.9-3.43 102.91-5.1 152.73-1.82 54.54-3.46 104-5.21 156.36l-5.1 152.72c-1.7 50.9-3.44 103.27-5.09 152.72-1.82 54.54 19.25 90 17.52 142-1.12 33.5 10.63 77.1 18.31 117.43z" fill="url(#f)"/><path d="M279.51 2344.75v159.79c0 53.26 33 118.41 33 171.68s-33 94.63-33 147.89v479.35c0 53.26 15.54 94.09 15.54 147.35s27.66 113.91 27.66 167.17v337.22c0 53.26-13.64 116.07-13.64 169.33s-29.56 84.37-29.56 137.63v1278.26c0 53.26 33 119.68 33 172.94s1.14 111 1.14 164.28-34.11 88.87-34.11 142.13v159.79h-36.42l2-26.63c2.16-26.63-5.42-114.66-1.25-167.92s27.55-242.88 15.54-296.15c-12.24-53.26-20.46-95.17-16.3-148.43s-16.29-106.52-24.25-159.78-4.17-106.53 4.06-159.79c8.07-53.26 20.2-106.52 26.26-159.78a703.26 703.26 0 000-159.78c-6.06-53.26-18.19-106.52-22.25-159.79-3.9-53.26-7-106.88-.87-160.14 6-53.26 21.23-106.16 9-159.42-12-53.26-7.72-106.52-5.57-159.78s-8.45-115.35 5.68-168.61c14.29-53.26 15.92-97.7 14-151s-9.86-114.27-5.68-167.53 11.17-98.78 7.26-152c-4.06-53.26-7.65-106.52-21.78-159.78-14.29-53.26-30.2-106.52-28.31-159.78S223 3197 222.93 3143.69c.11-53.26-20.36-106.52-32.37-159.79-12.24-53.26-16-106.52-4-159.78 12.25-53.26 40.29-106.52 46.47-159.78 6-53.26 28.31-99.14 30.2-152.4s-.87-36.78 9.1-63.41l7.2-77.1v-26.68z" fill="url(#g)"/><path d="M242.24 719.9c-3 66.18-3.55 139.62 2.4 211.12 6.18 64.91 37.9 109.09 23.87 175.1-14 70.41 15.43 178.26 15.54 244.27-.11 69.86-4.83 158.8 7.18 224.81 12.25 69.31 12.13 267.58 8.23 333.59-4.06 68.76 36.12 144.42 30.05 210.43-6.06 68.78-1.89 109.78 4.17 175.78 6.06 68.21-2.16 141.51-4.17 207.52-2.16 67.66 44.25 177.54 30 243.55-14.18 67.15-14.51 97.93-4.4 163.93 10 67.11-27.47 202.66-25.58 274.18 1.89 66.55-10.88 121.6-17 193.11-6 66 28.15 135 36.38 206.53 8.07 65.46-15.16 132-19.22 203.53-3.9 64.91 16.45 192.61 4.44 258.62-12.25 70.41-19.33 76.93-11.37 142.93 8 69.86 11 137.52 8.83 203.53-2 69.31 15.54 137.52 1.4 203.53-14.29 68.76-25.28 137.52-7.2 203.53 18.3 68.76 3.9 63.87 18.19 129.88 14.13 68.21 8.22 179.7-1.9 245.71-10 67.67-25.66 139.35-29.56 205.36-4.06 67.11 31.83 133.59 25.77 199.6-6.06 67.11 30.32 165.59 22.25 237.09-8.23 66.56-32.22 119.41-28.31 190.92 4.05 66 2 112.95 0 184.46-2.17 65.46-31 124.48-31.08 196 .12 64.91 34.6 171.23 30.7 237.24-4.06 70.41-54.73 139.9-42.6 205.9 12.13 69.86 10.61 135.15 22.74 201.15 12.13 69.31 0 137.52-4.06 203.53-3.9 68.76-21.34 145.39-17.17 211.39 4.17 68.76 31.34 176.82 25.4 242.83-6.18 68.21 4.55 156.36 4.55 156.36h-70.92l-4.06-34.11c-3.9-33.55-12.24-103.41-12.13-169.42-.11-67.11 8.23-137.52 12.13-203.53 4.06-67.11 4.06-132-2-203.53-6.07-66.55-18.2-132-18.2-203.52 0-66 12.13-132 12.13-203.53 0-65.46.92-132 11-203.53 10-64.91-13.15-162.59-11.26-228.59 1.9-70.41-12.51-100.47-20.73-166.48-8.07-69.86 4.06-137.52 18.19-203.53 14.29-69.31 30.21-137.52 38.43-203.53 8.07-68.76 20.47-147.31 4.29-213.31-16-68.76-18.95-134.21-20.85-200.22-1.89-68.21-4.28-153.86 1.9-219.86 5.95-67.66 22.36-197 12.13-263-10.24-67.11 6.06-119.17 1.89-185.18-4.17-67.11-29.94-74.56-15.92-146.06 14-66.56-15.54-132 .49-203.53 16.19-66 29.57-130.85 15.43-202.36-14.29-65.46 6.44-133.19-3.8-204.7-10.23-64.91-1.89-132 2-198a1701.42 1701.42 0 000-203.52c-3.9-69.86-12.24-137.52-6.06-203.53 6-69.31-20.58-159.65-18.69-225.66 1.9-68.76 33-115.39 24.75-181.4-8.07-68.76-8.07-137.52-10.08-203.53-2.16-68.21-5.95-137.52-4.06-203.53 1.9-67.66-4.55-149.67-2.65-215.68 1.89-67.11 12.88-125.36 14.78-191.37 1.9-67.11-44-178.86-34-250.37 10.13-66.56 22.25-132 18.2-203.53-3.91-66-24.38-132-30.32-203.53-6.18-65.45 2.16-132 0-203.52-2-64.91-14.14-132-6.07-198 8.23-70.41-46.84-122.6-40.66-188.61 5.94-69.86-23.59-330-23.59-472.68 0-139.79 43.64-163.57 43.64-232.74 0 0 7.52 124.65 30.09 193.11 24.76 74.87 22.57 178.86 16.11 320.6z" fill="url(#h)"/><circle cx="196.1" cy="4.51" r="4.51" fill="#fff"/><circle cx="196.1" cy="411.78" r="4.51"/><circle cx="195.6" cy="1231.33" r="4.51"/><circle cx="195.6" cy="472.47" r="1.5"/><path fill="none" stroke="#000" stroke-miterlimit="2.006" stroke-width="1.003" d="M195.6 472.47v758.86"/><path fill="none" stroke="#fff" stroke-miterlimit="2.006" stroke-width="1.003" d="M196.1 4.51v201.63"/><path fill="none" stroke="#000" stroke-miterlimit="2.006" stroke-width="1.003" d="M196.1 206.14v205.64"/><path d="M177.89 448.53h1.4v-7l-2.06 1.23v-3.07l3.69-2.17h1.27v11h1.41V451h-5.72v-2.42zM186.75 451l2.71-4.76a2.34 2.34 0 01-.46 0l-.42-.07a4.54 4.54 0 01-1.4-.52 4.43 4.43 0 01-1.14-.93 4.27 4.27 0 01-.76-1.24A3.9 3.9 0 01185 442a4.17 4.17 0 01.37-1.78 4.64 4.64 0 011-1.42 4.3 4.3 0 011.48-.94 4.69 4.69 0 011.8-.34 4.61 4.61 0 011.77.34 4.49 4.49 0 011.47.93 4.37 4.37 0 011 1.39 4.19 4.19 0 01.36 1.73 3.73 3.73 0 01-.09.84 5.53 5.53 0 01-.24.79 7.12 7.12 0 01-.35.74c-.12.25-.26.5-.4.75l-3.31 6zm2.93-7.25a2.34 2.34 0 00.93-.18 1.82 1.82 0 00.71-.55 2.65 2.65 0 00.2-.49 1.87 1.87 0 00.09-.59 1.84 1.84 0 00-.12-.63 2 2 0 00-.36-.6 1.78 1.78 0 00-.62-.44 2 2 0 00-.89-.18 2 2 0 00-.72.13 2.17 2.17 0 00-.65.36 1.66 1.66 0 00-.63 1.34 1.65 1.65 0 00.16.75 1.89 1.89 0 00.44.57 2.13 2.13 0 00.66.37 2.32 2.32 0 00.8.1zM199.84 437.33a4.54 4.54 0 011.69.32 4.44 4.44 0 011.39.85 3.93 3.93 0 01.93 1.26 3.45 3.45 0 01.35 1.51 3.09 3.09 0 01-.36 1.46 3.87 3.87 0 01-1 1.21 4 4 0 011.17 1.29 3.24 3.24 0 01.43 1.66 4 4 0 01-.35 1.64 4.53 4.53 0 01-1 1.37 4.75 4.75 0 01-1.47.94 4.89 4.89 0 01-1.84.34 4.71 4.71 0 01-1.25-.16 4.94 4.94 0 01-2.05-1.15 5.83 5.83 0 01-.71-.88 4.16 4.16 0 01-.45-1 3.57 3.57 0 01-.17-1.07 3.39 3.39 0 01.44-1.7 4 4 0 011.19-1.3 3.91 3.91 0 01-1-1.19 3 3 0 01-.34-1.41 3.53 3.53 0 01.34-1.54 3.82 3.82 0 01.93-1.26 4.25 4.25 0 011.36-.86 4.47 4.47 0 011.77-.33zm-2.08 9.51a1.52 1.52 0 00.16.69 1.68 1.68 0 00.44.56 2 2 0 00.66.39 2.25 2.25 0 00.82.15 2.16 2.16 0 00.81-.15 1.94 1.94 0 00.65-.39 2 2 0 00.44-.56 1.66 1.66 0 00.16-.69 1.57 1.57 0 00-.16-.67 1.94 1.94 0 00-.44-.55 2.32 2.32 0 00-.65-.38 2.33 2.33 0 00-2.29.38 1.65 1.65 0 00-.44.55 1.44 1.44 0 00-.16.67zm.32-5.43a1.36 1.36 0 00.13.57 1.43 1.43 0 00.38.47 1.71 1.71 0 00.56.32 2 2 0 001.38 0 1.71 1.71 0 00.56-.32 1.43 1.43 0 00.38-.47 1.16 1.16 0 00.15-.57 1.19 1.19 0 00-.15-.58 1.51 1.51 0 00-.38-.49 1.59 1.59 0 00-.56-.34 1.9 1.9 0 00-1.38 0 1.75 1.75 0 00-.56.34 1.51 1.51 0 00-.38.49 1.29 1.29 0 00-.13.58zM206.63 448.53h.93c.3-.7.61-1.4.93-2.12l.95-2.13c.32-.7.62-1.38.93-2s.59-1.3.86-1.91h-3.73v1.52H205v-4.27h9.77v2c-.7 1.42-1.4 2.89-2.13 4.4s-1.42 3-2.09 4.56h.88v2.41h-4.78zM178.14 1268.08h1.4v-7l-2.06 1.22v-3.07l3.69-2.17h1.28v11h1.4v2.42h-5.72v-2.42zM187 1270.51l2.71-4.76a2.22 2.22 0 01-.45 0l-.42-.07a4.44 4.44 0 01-1.4-.52 4.27 4.27 0 01-1.14-.92 4.49 4.49 0 01-.77-1.25 4.09 4.09 0 01-.27-1.48 4.17 4.17 0 01.37-1.78 4.32 4.32 0 011-1.42 4.41 4.41 0 011.47-.94 4.76 4.76 0 011.8-.34 4.54 4.54 0 011.77.34 4.66 4.66 0 011.47.93 4.23 4.23 0 011 1.39 4 4 0 01.37 1.73 3.73 3.73 0 01-.09.84 5.53 5.53 0 01-.24.79 7.12 7.12 0 01-.35.74c-.12.25-.27.5-.41.75l-3.3 6zm2.93-7.25a2.39 2.39 0 00.94-.18 1.7 1.7 0 00.7-.55 3.61 3.61 0 00.21-.49 2.21 2.21 0 00.08-.59 1.89 1.89 0 00-.12-.63 2 2 0 00-.36-.6 1.74 1.74 0 00-.61-.44 2.05 2.05 0 00-.89-.17 2.28 2.28 0 00-.73.12 2.24 2.24 0 00-.64.36 1.61 1.61 0 00-.46.57 1.59 1.59 0 00-.18.77 1.73 1.73 0 00.61 1.32 2 2 0 00.66.37 2.3 2.3 0 00.78.14zM197.14 1270.51l2.71-4.76a2.34 2.34 0 01-.46 0l-.42-.07a4.54 4.54 0 01-1.4-.52 4.61 4.61 0 01-1.14-.92 4.7 4.7 0 01-.76-1.25 4.09 4.09 0 01-.27-1.48 4.32 4.32 0 01.36-1.78 4.64 4.64 0 011-1.42 4.45 4.45 0 011.48-.94 4.72 4.72 0 011.8-.34 4.61 4.61 0 011.77.34 4.66 4.66 0 011.47.93 4.37 4.37 0 011 1.39 4.19 4.19 0 01.36 1.73 3.73 3.73 0 01-.09.84 5.53 5.53 0 01-.24.79c-.1.25-.22.5-.34.74s-.27.5-.41.75l-3.3 6zm2.93-7.25a2.34 2.34 0 00.93-.18 1.73 1.73 0 00.71-.55 3.61 3.61 0 00.21-.49 2.21 2.21 0 00.08-.59 1.89 1.89 0 00-.12-.63 2 2 0 00-.36-.6 1.78 1.78 0 00-.62-.44 2 2 0 00-.89-.17 2.22 2.22 0 00-.72.12 2.12 2.12 0 00-.64.36 1.75 1.75 0 00-.47.57 1.71 1.71 0 00-.17.77 1.65 1.65 0 00.16.75 1.68 1.68 0 00.45.57 2 2 0 00.65.37 2.36 2.36 0 00.8.14zM212.65 1257.11l-2.72 4.77a2.34 2.34 0 01.46 0 3.32 3.32 0 01.44.06 4.53 4.53 0 012.54 1.45 4.16 4.16 0 01.75 1.25 3.82 3.82 0 01.28 1.48 4.24 4.24 0 01-.37 1.78 4.41 4.41 0 01-1 1.42 4.83 4.83 0 01-3.27 1.28 4.62 4.62 0 01-1.77-.35 4.54 4.54 0 01-1.45-.92 4.49 4.49 0 01-1-1.39 4.19 4.19 0 01-.36-1.73 3.89 3.89 0 01.09-.85 7.67 7.67 0 01.23-.78 7.27 7.27 0 01.35-.75c.13-.25.26-.5.4-.75l3.31-6zm-2.91 7.27a2.23 2.23 0 00-1 .2 1.79 1.79 0 00-.71.56 2.55 2.55 0 00-.2.48 2 2 0 00-.07.56 1.76 1.76 0 00.12.63 1.81 1.81 0 00.37.6 1.92 1.92 0 00.62.44 2.26 2.26 0 00.9.17 2.28 2.28 0 001.35-.48 1.75 1.75 0 00.47-.57 1.59 1.59 0 00.18-.77 1.69 1.69 0 00-.17-.75 1.65 1.65 0 00-.45-.57 2.29 2.29 0 00-.65-.37 2.2 2.2 0 00-.76-.13zM178 2907.18h1.4v-7l-2.06 1.22v-3.07l3.69-2.16h1.27v11h1.41v2.42H178v-2.42zM186.88 2909.61l2.71-4.76a2.34 2.34 0 01-.46 0l-.42-.07a4.28 4.28 0 01-1.4-.51 4.89 4.89 0 01-1.14-.93 4.55 4.55 0 01-.76-1.25 3.9 3.9 0 01-.28-1.48 4.2 4.2 0 01.37-1.78 4.43 4.43 0 012.47-2.36 4.88 4.88 0 011.8-.34 4.76 4.76 0 013.24 1.27 4.49 4.49 0 011 1.39 4.19 4.19 0 01.36 1.73 3.89 3.89 0 01-.09.85 5.81 5.81 0 01-.24.78c-.1.25-.22.5-.34.75l-.41.74-3.31 6zm2.92-7.25a2.39 2.39 0 00.94-.18 1.77 1.77 0 00.7-.54 3.26 3.26 0 00.21-.5 2.16 2.16 0 00.08-.59 1.79 1.79 0 00-.12-.62 2 2 0 00-.36-.61 1.74 1.74 0 00-.61-.44 2.05 2.05 0 00-.89-.17 2.28 2.28 0 00-.73.12 2.24 2.24 0 00-.64.36 1.81 1.81 0 00-.46.57 1.62 1.62 0 00-.18.77 1.73 1.73 0 00.61 1.32 1.92 1.92 0 00.66.37 2.3 2.3 0 00.79.14zM197 2909.61l2.7-4.76a2.22 2.22 0 01-.45 0l-.42-.07a4.2 4.2 0 01-1.4-.51 4.69 4.69 0 01-1.14-.93 4.11 4.11 0 01-.76-1.25 3.9 3.9 0 01-.28-1.48 4.2 4.2 0 01.37-1.78 4.32 4.32 0 011-1.42 4.68 4.68 0 011.47-.94 5 5 0 011.8-.34 4.82 4.82 0 011.78.34 4.92 4.92 0 011.46.93 4.19 4.19 0 011 1.39 4 4 0 01.37 1.73 3.89 3.89 0 01-.09.85 5.81 5.81 0 01-.24.78c-.1.25-.22.5-.35.75s-.26.49-.4.74l-3.31 6zm2.92-7.25a2.34 2.34 0 00.93-.18 1.8 1.8 0 00.71-.54 3.26 3.26 0 00.21-.5 2.16 2.16 0 00.08-.59 1.79 1.79 0 00-.12-.62 2 2 0 00-.36-.61 1.78 1.78 0 00-.62-.44 2 2 0 00-.89-.17 2.22 2.22 0 00-.72.12 2.12 2.12 0 00-.64.36 1.84 1.84 0 00-.47.57 1.74 1.74 0 00-.17.77 1.65 1.65 0 00.16.75 1.68 1.68 0 00.45.57 2 2 0 00.65.37 2.36 2.36 0 00.88.14zM206.5 2907.18h.93l.93-2.12c.32-.71.63-1.42.95-2.12s.62-1.39.93-2.06.59-1.3.86-1.91h-3.73v1.52h-2.52v-4.27h9.77v2c-.7 1.43-1.4 2.89-2.13 4.41s-1.42 3-2.09 4.55h.88v2.42h-4.77v-2.41zM176.4 3726.86l4.6-4.86a5.23 5.23 0 00.92-1.17 2.34 2.34 0 00.33-1.18 1.34 1.34 0 00-.11-.51 1.61 1.61 0 00-.3-.45 1.66 1.66 0 00-.49-.32 1.64 1.64 0 00-.65-.12 1.93 1.93 0 00-.75.14 1.47 1.47 0 00-.53.38 1.82 1.82 0 00-.34.55 2.48 2.48 0 00-.12.67h-2.65a4.69 4.69 0 01.34-1.85 4.1 4.1 0 011-1.38 4.19 4.19 0 011.41-.85 5.25 5.25 0 011.74-.29 5.11 5.11 0 011.66.27 4 4 0 011.39.77 3.62 3.62 0 011 1.26 4 4 0 01.35 1.73 3.21 3.21 0 01-.32 1.45 5.63 5.63 0 01-.86 1.28l-3.81 4.11h5v2.71h-8.81v-2.29zM191.58 3729.27a5.12 5.12 0 01-2.39-.52 4.38 4.38 0 01-1.61-1.44 6.15 6.15 0 01-.91-2.15 11.88 11.88 0 01-.29-2.67 12.62 12.62 0 01.27-2.66 6.19 6.19 0 01.9-2.18 4.35 4.35 0 011.61-1.49 5.09 5.09 0 012.44-.54 5.16 5.16 0 012.43.53 4.46 4.46 0 011.61 1.47 6.26 6.26 0 01.89 2.16 12.42 12.42 0 01.28 2.64 11.94 11.94 0 01-.29 2.67 6.26 6.26 0 01-.91 2.17 4.49 4.49 0 01-1.62 1.47 5 5 0 01-2.41.54zm0-2.7a2.18 2.18 0 001.25-.32 1.89 1.89 0 00.71-.86 3.76 3.76 0 00.32-1.31c0-.5.07-1 .07-1.65s0-1.12-.07-1.62a4.2 4.2 0 00-.31-1.32 2 2 0 00-.71-.87 2.09 2.09 0 00-1.24-.32 2.13 2.13 0 00-1.25.32 2 2 0 00-.71.87 4.48 4.48 0 00-.32 1.32c0 .5-.08 1-.08 1.62s0 1.15.08 1.65a4.27 4.27 0 00.31 1.31 1.89 1.89 0 00.71.86 2.17 2.17 0 001.24.32zM203 3729.27a5.12 5.12 0 01-2.39-.52 4.38 4.38 0 01-1.61-1.44 6.15 6.15 0 01-.91-2.15 11.88 11.88 0 01-.29-2.67 12.62 12.62 0 01.27-2.66 6.38 6.38 0 01.9-2.18 4.35 4.35 0 011.61-1.49 5.09 5.09 0 012.44-.54 5.16 5.16 0 012.43.53 4.46 4.46 0 011.61 1.47 6.26 6.26 0 01.89 2.16 12.42 12.42 0 01.28 2.64 11.94 11.94 0 01-.29 2.67 6.26 6.26 0 01-.91 2.17 4.41 4.41 0 01-1.62 1.47 5 5 0 01-2.41.54zm0-2.7a2.18 2.18 0 001.25-.32 2 2 0 00.72-.86 4 4 0 00.31-1.31c.05-.5.07-1 .07-1.65s0-1.12-.07-1.62a4.2 4.2 0 00-.31-1.32 2 2 0 00-.71-.87 2.09 2.09 0 00-1.24-.32 2.13 2.13 0 00-1.25.32 2 2 0 00-.71.87 4.48 4.48 0 00-.32 1.32c-.05.5-.08 1-.08 1.62s0 1.15.08 1.65a4.27 4.27 0 00.31 1.31 1.89 1.89 0 00.71.86 2.17 2.17 0 001.24.32zM209.53 3726.73h1.4v-7l-2.06 1.22v-3.07l3.69-2.16h1.28v11h1.41v2.41h-5.73v-2.42zM175.56 4546.41l4.62-4.91a5.29 5.29 0 00.93-1.17 2.34 2.34 0 00.33-1.18 1.34 1.34 0 00-.11-.51 1.61 1.61 0 00-.3-.45 1.64 1.64 0 00-.49-.31 1.51 1.51 0 00-.65-.13 1.93 1.93 0 00-.75.14 1.51 1.51 0 00-.54.38 1.79 1.79 0 00-.33.55 2.48 2.48 0 00-.12.68h-2.66a4.71 4.71 0 01.35-1.86 4.1 4.1 0 01.95-1.38 4.19 4.19 0 011.41-.85 5.21 5.21 0 011.74-.29 5.11 5.11 0 011.66.27 4.11 4.11 0 011.39.77 3.84 3.84 0 011 1.26 4 4 0 01.35 1.73 3.18 3.18 0 01-.32 1.45 5.69 5.69 0 01-.87 1.28l-3.8 4.11h5v2.71h-8.72v-2.29zM190.76 4548.82a5.16 5.16 0 01-2.4-.52 4.3 4.3 0 01-1.61-1.44 6.15 6.15 0 01-.91-2.15 11.88 11.88 0 01-.29-2.67 12.45 12.45 0 01.28-2.65 6.42 6.42 0 01.89-2.19 4.43 4.43 0 011.61-1.49 5.81 5.81 0 014.87 0 4.46 4.46 0 011.61 1.47 6.32 6.32 0 01.89 2.17 12.26 12.26 0 01.3 2.65 11.94 11.94 0 01-.29 2.67 6.26 6.26 0 01-.91 2.17 4.41 4.41 0 01-1.62 1.47 5 5 0 01-2.42.51zm0-2.7a2.31 2.31 0 001.25-.31 2 2 0 00.71-.87 4 4 0 00.31-1.31c.05-.5.07-1.05.07-1.65s0-1.12-.07-1.62a4.26 4.26 0 00-.31-1.32 2 2 0 00-.7-.87 2.6 2.6 0 00-2.5 0 2 2 0 00-.71.87 4.56 4.56 0 00-.32 1.32c-.05.5-.08 1-.08 1.62s0 1.15.08 1.65a4 4 0 00.32 1.31 2 2 0 00.7.87 2.26 2.26 0 001.25.31zM202.18 4548.82a5.19 5.19 0 01-2.4-.52 4.45 4.45 0 01-1.61-1.44 6.34 6.34 0 01-.9-2.15 11.88 11.88 0 01-.27-2.71 12.46 12.46 0 01.27-2.65 6.42 6.42 0 01.89-2.19 4.46 4.46 0 011.62-1.49 5.79 5.79 0 014.86 0 4.38 4.38 0 011.61 1.47 6.14 6.14 0 01.9 2.17 12.27 12.27 0 01.27 2.63 12 12 0 01-.28 2.67 6.26 6.26 0 01-.91 2.17 4.49 4.49 0 01-1.62 1.47 5 5 0 01-2.43.57zm0-2.7a2.29 2.29 0 001.25-.31 2 2 0 00.71-.87 4 4 0 00.32-1.31c0-.5.07-1.05.07-1.65s0-1.12-.07-1.62a4.57 4.57 0 00-.31-1.32 2 2 0 00-.71-.87 2.17 2.17 0 00-1.24-.32 2.2 2.2 0 00-1.25.32 2 2 0 00-.71.87 4.56 4.56 0 00-.33 1.32c0 .5-.07 1-.07 1.62s0 1.15.07 1.65a4.26 4.26 0 00.32 1.31 2 2 0 00.71.87 2.25 2.25 0 001.24.31zM207.77 4542.79l4.75-7.46h2.94l-4.68 7.48h2.82v-2.58h2.76v2.62h1.86v2.24h-1.86v1.23h1.7v2.42h-5.73v-2.42h1.27v-1.23h-5.84v-2.26zM174.74 5366l4.62-4.91a5.29 5.29 0 00.93-1.17 2.33 2.33 0 00.32-1.18 1.32 1.32 0 00-.1-.51 1.45 1.45 0 00-.31-.45 1.47 1.47 0 00-.48-.31 1.67 1.67 0 00-.65-.12 1.9 1.9 0 00-.75.13 1.51 1.51 0 00-.54.38 1.79 1.79 0 00-.33.55 2.16 2.16 0 00-.13.68h-2.65a4.71 4.71 0 01.35-1.86 3.83 3.83 0 01.95-1.37 4.05 4.05 0 011.41-.86 5.21 5.21 0 011.74-.29 5.11 5.11 0 011.66.27 4.06 4.06 0 011.39.78 3.7 3.7 0 011 1.25 4.11 4.11 0 01.35 1.73 3.31 3.31 0 01-.32 1.45 5.47 5.47 0 01-.87 1.28l-3.81 4.12h5v2.7h-8.71V5366zM189.93 5368.37a5 5 0 01-2.39-.52 4.3 4.3 0 01-1.61-1.44 6.15 6.15 0 01-.91-2.15 11.81 11.81 0 01-.29-2.67 12.46 12.46 0 01.27-2.65 6.24 6.24 0 01.9-2.19 4.43 4.43 0 011.61-1.49 5.76 5.76 0 014.87 0 4.43 4.43 0 011.61 1.46 6.32 6.32 0 01.89 2.17 12.27 12.27 0 01.27 2.63 12 12 0 01-.28 2.67 6.18 6.18 0 01-.91 2.17 4.49 4.49 0 01-1.62 1.47 5 5 0 01-2.41.54zm0-2.7a2.26 2.26 0 001.25-.31 2 2 0 00.71-.87 3.76 3.76 0 00.32-1.31c0-.5.07-1.05.07-1.65s0-1.12-.07-1.62a4.13 4.13 0 00-.31-1.31 2 2 0 00-.71-.88 2.17 2.17 0 00-1.24-.32 2.2 2.2 0 00-1.25.32 2 2 0 00-.71.88 4.41 4.41 0 00-.32 1.31c0 .5-.08 1-.08 1.62s0 1.15.08 1.65a4.27 4.27 0 00.31 1.31 2 2 0 00.71.87 2.25 2.25 0 001.24.31zM201.36 5368.37a5.07 5.07 0 01-2.4-.52 4.37 4.37 0 01-1.61-1.44 6.35 6.35 0 01-.91-2.15 11.83 11.83 0 01-.28-2.67 12.46 12.46 0 01.27-2.65 6.42 6.42 0 01.89-2.19 4.46 4.46 0 011.62-1.49 5.06 5.06 0 012.44-.54 5 5 0 012.42.54 4.35 4.35 0 011.61 1.46 6.32 6.32 0 01.89 2.17 11.66 11.66 0 01.28 2.63 11.38 11.38 0 01-.29 2.67 6.36 6.36 0 01-.9 2.17 4.57 4.57 0 01-1.62 1.47 5 5 0 01-2.41.54zm0-2.7a2.29 2.29 0 001.25-.31 2 2 0 00.71-.87 4 4 0 00.32-1.31c0-.5.07-1.05.07-1.65s0-1.12-.07-1.62a4.42 4.42 0 00-.31-1.31 2 2 0 00-.71-.88 2.17 2.17 0 00-1.24-.32 2.2 2.2 0 00-1.25.32 1.9 1.9 0 00-.72.88 4.41 4.41 0 00-.32 1.31c-.05.5-.07 1-.07 1.62s0 1.15.07 1.65a4.26 4.26 0 00.32 1.31 1.91 1.91 0 00.71.87 2.25 2.25 0 001.24.31zM208.88 5365.83h.93c.3-.69.61-1.4.93-2.11s.63-1.43.95-2.13l.92-2.05c.31-.67.6-1.31.87-1.91h-3.73v1.51h-2.53v-4.27H217v2c-.69 1.42-1.4 2.88-2.12 4.4s-1.42 3-2.09 4.55h.87v2.42h-4.77v-2.41zM178.51 6185.51l4.62-4.91a5.5 5.5 0 00.93-1.16 2.41 2.41 0 00.33-1.19 1.25 1.25 0 00-.11-.5 1.52 1.52 0 00-.3-.46 1.64 1.64 0 00-.49-.31 1.67 1.67 0 00-.65-.12 1.93 1.93 0 00-.75.13 1.51 1.51 0 00-.54.38 1.73 1.73 0 00-.33.56 2.41 2.41 0 00-.12.67h-2.66a4.74 4.74 0 01.35-1.86 4 4 0 011-1.37 4.21 4.21 0 011.41-.86 5.21 5.21 0 011.74-.29 5.11 5.11 0 011.66.27 4.31 4.31 0 011.39.78 3.65 3.65 0 011 1.26 4 4 0 01.35 1.73 3.24 3.24 0 01-.32 1.45 5.64 5.64 0 01-.87 1.27l-3.81 4.12h5v2.71h-8.72v-2.3zM193.71 6187.92a5 5 0 01-2.4-.52 4.36 4.36 0 01-1.61-1.43 6.29 6.29 0 01-.91-2.16 11.79 11.79 0 01-.29-2.66 12.49 12.49 0 01.27-2.66 6.64 6.64 0 01.9-2.19 4.4 4.4 0 011.61-1.48 5.1 5.1 0 012.45-.55 5 5 0 012.42.54 4.35 4.35 0 011.61 1.46 6.32 6.32 0 01.89 2.17 12.35 12.35 0 01.28 2.64 11.92 11.92 0 01-.29 2.66 6.31 6.31 0 01-.91 2.18 4.47 4.47 0 01-1.62 1.46 5 5 0 01-2.4.54zm0-2.7a2.25 2.25 0 001.24-.31 2 2 0 00.72-.87 4 4 0 00.31-1.3c.05-.51.07-1.06.07-1.65s0-1.13-.07-1.63a4.13 4.13 0 00-.31-1.31 1.89 1.89 0 00-.71-.88 2.16 2.16 0 00-1.23-.32 2.22 2.22 0 00-1.26.32 2 2 0 00-.71.88 4.41 4.41 0 00-.32 1.31 16.32 16.32 0 00-.08 1.63c0 .59 0 1.14.08 1.65a4.28 4.28 0 00.31 1.3 2 2 0 00.71.87 2.26 2.26 0 001.25.31zM200.22 6185.38h1.4v-7l-2.06 1.23v-3.07l3.69-2.17h1.28v11h1.41v2.42h-5.72v-2.43zM207.41 6185.38h1.4v-7l-2.06 1.23v-3.07l3.69-2.17h1.28v11h1.41v2.42h-5.73v-2.43zM176.86 7005.06l4.62-4.91a5.5 5.5 0 00.93-1.16 2.41 2.41 0 00.33-1.19 1.25 1.25 0 00-.11-.5 1.38 1.38 0 00-.31-.46 1.47 1.47 0 00-.48-.31 1.67 1.67 0 00-.65-.12 1.93 1.93 0 00-.75.13 1.51 1.51 0 00-.54.38 1.84 1.84 0 00-.33.56 2.41 2.41 0 00-.12.67h-2.66a4.74 4.74 0 01.35-1.86 4 4 0 011-1.37 4 4 0 011.41-.85 5 5 0 011.74-.3 5.11 5.11 0 011.66.27 4.42 4.42 0 011.39.78 3.65 3.65 0 011 1.26 4 4 0 01.35 1.73 3.35 3.35 0 01-.32 1.45 5.64 5.64 0 01-.87 1.27l-3.81 4.12h5v2.71h-8.72v-2.3zM192.06 7007.47a5 5 0 01-2.4-.52 4.27 4.27 0 01-1.61-1.43 6.32 6.32 0 01-.91-2.15 11.94 11.94 0 01-.29-2.67 12.49 12.49 0 01.27-2.66 6.73 6.73 0 01.9-2.19 4.4 4.4 0 011.61-1.48 5.1 5.1 0 012.45-.55 5 5 0 012.42.54 4.43 4.43 0 011.61 1.46 6.32 6.32 0 01.89 2.18 12.35 12.35 0 01.28 2.64 12.07 12.07 0 01-.29 2.67 6.34 6.34 0 01-.91 2.17 4.47 4.47 0 01-1.62 1.46 5 5 0 01-2.4.53zm0-2.7a2.25 2.25 0 001.24-.31 2 2 0 00.72-.86 4.13 4.13 0 00.31-1.31c0-.51.07-1.06.07-1.65s0-1.13-.07-1.63a4.13 4.13 0 00-.31-1.31 1.94 1.94 0 00-.71-.88 2.16 2.16 0 00-1.23-.32 2.22 2.22 0 00-1.26.32 2 2 0 00-.71.88 4.41 4.41 0 00-.32 1.31 16.32 16.32 0 00-.08 1.63c0 .59 0 1.14.08 1.65a4.42 4.42 0 00.31 1.31 2 2 0 00.71.86 2.26 2.26 0 001.25.31zM198.57 7004.94H200v-7l-2.06 1.23v-3.07l3.69-2.17h1.28v11h1.41v2.42h-5.72v-2.42zM206.76 7004.94h.93c.3-.7.61-1.4.93-2.12s.63-1.43.95-2.13.62-1.38.93-2 .59-1.3.87-1.91h-3.74v1.51h-2.52V6994h9.77v2c-.7 1.42-1.4 2.89-2.13 4.4s-1.41 3-2.09 4.56h.88v2.41h-4.77v-2.4z"/><circle cx="195.6" cy="2050.88" r="4.51"/><circle cx="195.6" cy="1292.02" r="1.5"/><path fill="none" stroke="#000" stroke-miterlimit="2.006" stroke-width="1.003" d="M195.6 1292.02v758.86"/><path d="M178.14 2087.63h1.4v-7l-2.06 1.22v-3.07l3.69-2.17h1.28v11h1.4v2.42h-5.72v-2.42zM187 2090.06l2.71-4.76a2.22 2.22 0 01-.45 0l-.42-.07a4.21 4.21 0 01-1.4-.52 4.27 4.27 0 01-1.14-.92 4.35 4.35 0 01-.77-1.25 4.09 4.09 0 01-.27-1.48 4.2 4.2 0 01.37-1.78 4.32 4.32 0 011-1.42 4.57 4.57 0 011.47-.94 4.76 4.76 0 011.8-.34 4.54 4.54 0 011.77.34 4.84 4.84 0 011.47.93 4.33 4.33 0 011 1.39 4 4 0 01.37 1.73 3.89 3.89 0 01-.09.85 5.81 5.81 0 01-.24.78 7.12 7.12 0 01-.35.74c-.12.25-.27.5-.41.75l-3.3 6zm2.93-7.25a2.39 2.39 0 00.94-.18 1.77 1.77 0 00.7-.54 3.26 3.26 0 00.21-.5 2.21 2.21 0 00.08-.59 1.79 1.79 0 00-.12-.62 2 2 0 00-.36-.61 1.74 1.74 0 00-.61-.44 2.05 2.05 0 00-.89-.17 2.28 2.28 0 00-.73.12 2.24 2.24 0 00-.64.36 1.71 1.71 0 00-.64 1.34 1.73 1.73 0 00.61 1.32 2 2 0 00.66.37 2.3 2.3 0 00.78.14zM197.14 2090.06l2.71-4.76a2.34 2.34 0 01-.46 0l-.42-.07a4.3 4.3 0 01-1.4-.52 4.61 4.61 0 01-1.14-.92 4.55 4.55 0 01-.76-1.25 4.09 4.09 0 01-.27-1.48 4.36 4.36 0 01.36-1.78 4.43 4.43 0 012.47-2.36 4.72 4.72 0 011.8-.34 4.61 4.61 0 011.77.34 4.84 4.84 0 011.47.93 4.49 4.49 0 011 1.39 4.19 4.19 0 01.36 1.73 3.89 3.89 0 01-.09.85 5.81 5.81 0 01-.24.78c-.1.25-.22.5-.34.74s-.27.5-.41.75l-3.3 6zm2.93-7.25a2.34 2.34 0 00.93-.18 1.8 1.8 0 00.71-.54 3.26 3.26 0 00.21-.5 2.21 2.21 0 00.08-.59 1.79 1.79 0 00-.12-.62 2 2 0 00-.36-.61 1.78 1.78 0 00-.62-.44 2 2 0 00-.89-.17 2.22 2.22 0 00-.72.12 2.12 2.12 0 00-.64.36 1.63 1.63 0 00-.65 1.36 1.65 1.65 0 00.16.75 1.68 1.68 0 00.45.57 2 2 0 00.65.37 2.36 2.36 0 00.81.12zM212.65 2076.66l-2.72 4.77a2.34 2.34 0 01.46 0 3.32 3.32 0 01.44.06 4.53 4.53 0 012.54 1.45 4.16 4.16 0 01.75 1.25 3.86 3.86 0 01.28 1.48 4.24 4.24 0 01-.37 1.78 4.31 4.31 0 01-1 1.42 4.71 4.71 0 01-3.27 1.28 4.8 4.8 0 01-1.77-.34 4.74 4.74 0 01-1.45-.93 4.49 4.49 0 01-1-1.39 4.19 4.19 0 01-.36-1.73 3.89 3.89 0 01.09-.85 7.67 7.67 0 01.23-.78c.1-.25.22-.5.35-.75s.26-.5.4-.75l3.31-6zm-2.91 7.27a2.23 2.23 0 00-1 .2 1.79 1.79 0 00-.71.56 2.55 2.55 0 00-.2.48 2 2 0 00-.07.56 1.76 1.76 0 00.12.63 1.72 1.72 0 00.37.6 1.92 1.92 0 00.62.44 2.26 2.26 0 00.9.17 2.28 2.28 0 001.35-.48 1.75 1.75 0 00.47-.57 1.59 1.59 0 00.18-.77 1.72 1.72 0 00-.17-.75 1.65 1.65 0 00-.45-.57 2.29 2.29 0 00-.65-.37 2.2 2.2 0 00-.76-.13z"/><circle cx="195.6" cy="2870.44" r="4.51"/><circle cx="195.6" cy="2111.57" r="1.5"/><path fill="none" stroke="#000" stroke-miterlimit="2.006" stroke-width="1.003" d="M195.6 2111.57v758.87"/><circle cx="195.6" cy="3689.99" r="4.51"/><circle cx="195.6" cy="2931.12" r="1.5"/><path fill="none" stroke="#000" stroke-miterlimit="2.006" stroke-width="1.003" d="M195.6 2931.12v758.87"/><circle cx="195.6" cy="4509.54" r="4.51"/><circle cx="195.6" cy="3750.68" r="1.5"/><path fill="none" stroke="#000" stroke-miterlimit="2.006" stroke-width="1.003" d="M195.6 3750.68v758.86"/><circle cx="195.6" cy="5329.09" r="4.51"/><circle cx="195.6" cy="4570.23" r="1.5"/><path fill="none" stroke="#000" stroke-miterlimit="2.006" stroke-width="1.003" d="M195.6 4570.23v758.86"/><circle cx="195.6" cy="6148.64" r="4.51"/><circle cx="195.6" cy="5389.78" r="1.5"/><path fill="none" stroke="#000" stroke-miterlimit="2.006" stroke-width="1.003" d="M195.6 5389.78v758.86"/><circle cx="195.6" cy="6968.19" r="4.51"/><circle cx="195.6" cy="6209.33" r="1.5"/><path fill="none" stroke="#000" stroke-miterlimit="2.006" stroke-width="1.003" d="M195.6 6209.33v758.86"/><circle cx="195.6" cy="7787.74" r="4.51"/><circle cx="195.6" cy="7028.88" r="1.5"/><path fill="none" stroke="#000" stroke-miterlimit="2.006" stroke-width="1.003" d="M195.6 7028.88v758.86"/></g></g></svg>